<svg width="403" height="113" viewBox="0 0 403 113" fill="none" xmlns="http://www.w3.org/2000/svg">
<g clip-path="url(#clip0_227_122)">
<path d="M103.76 83.72H104.4C104.997 83.72 105.552 83.464 106.064 82.952C106.576 82.44 107.003 81.8427 107.344 81.16C107.771 80.4773 108.069 79.752 108.24 78.984C108.411 78.1307 108.496 77.3627 108.496 76.68V8.584C108.496 7.98666 108.411 7.304 108.24 6.536C108.069 5.768 107.771 5.04266 107.344 4.35999C107.003 3.59199 106.533 2.99466 105.936 2.56799C105.424 2.05599 104.827 1.8 104.144 1.8H103.504V0.519997H124.496C132.432 0.519997 138.619 2.26933 143.056 5.768C147.579 9.26667 149.84 13.9173 149.84 19.72C149.84 22.1947 149.413 24.4133 148.56 26.376C147.707 28.3387 146.597 30.088 145.232 31.624C143.952 33.16 142.544 34.4827 141.008 35.592C139.472 36.616 138.021 37.4693 136.656 38.152C140.24 38.8347 143.227 39.9867 145.616 41.608C148.005 43.2293 149.925 45.1067 151.376 47.24C152.912 49.288 153.979 51.5067 154.576 53.896C155.173 56.2853 155.472 58.632 155.472 60.936C155.472 65.3733 154.661 69.128 153.04 72.2C151.419 75.1867 149.243 77.6613 146.512 79.624C143.867 81.5013 140.795 82.8667 137.296 83.72C133.883 84.5733 130.341 85 126.672 85H103.76V83.72ZM146.768 61.704C146.085 55.1333 143.867 50.056 140.112 46.472C136.357 42.888 131.067 41.096 124.24 41.096H117.072V80.776H124.496C131.408 80.776 136.827 79.24 140.752 76.168C144.763 73.0107 146.768 68.6587 146.768 63.112V61.704ZM141.52 20.872C141.264 15.9227 139.515 11.9973 136.272 9.09599C133.115 6.19466 128.848 4.744 123.472 4.744H117.072V37H123.728C127.312 37 130.213 36.5307 132.432 35.592C134.736 34.6533 136.571 33.4587 137.936 32.008C139.301 30.472 140.24 28.808 140.752 27.016C141.264 25.224 141.52 23.4747 141.52 21.768V20.872ZM211.953 76.68C211.953 77.2773 212.038 78.0027 212.209 78.856C212.38 79.624 212.593 80.392 212.849 81.16C213.19 81.8427 213.617 82.44 214.129 82.952C214.641 83.464 215.238 83.72 215.921 83.72V85H203.505V77.96C202.225 79.8373 200.348 81.672 197.873 83.464C195.398 85.256 192.198 86.152 188.273 86.152C183.324 86.152 179.398 85.2987 176.497 83.592C173.596 81.8853 171.377 79.7093 169.841 77.064C168.305 74.4187 167.324 71.56 166.897 68.488C166.47 65.3307 166.257 62.3867 166.257 59.656V41.352C166.257 40.584 166.214 39.8587 166.129 39.176C166.129 38.408 165.958 37.7253 165.617 37.128C165.361 36.5307 164.934 36.0613 164.337 35.72C163.74 35.2933 162.886 35.08 161.777 35.08V33.928L174.705 29.832V62.472C174.705 68.9573 176.113 73.736 178.929 76.808C181.745 79.88 185.201 81.416 189.297 81.416C191.516 81.416 193.478 80.9467 195.185 80.008C196.977 78.984 198.47 77.7893 199.665 76.424C200.945 75.0587 201.884 73.6507 202.481 72.2C203.164 70.7493 203.505 69.5547 203.505 68.616V41.352C203.505 40.584 203.462 39.8587 203.377 39.176C203.377 38.408 203.206 37.7253 202.865 37.128C202.609 36.5307 202.182 36.0613 201.585 35.72C200.988 35.2933 200.134 35.08 199.025 35.08V33.928L211.953 29.832V76.68ZM274.726 76.68C274.726 77.3627 274.811 78.1307 274.982 78.984C275.153 79.752 275.409 80.4773 275.75 81.16C276.177 81.8427 276.603 82.44 277.03 82.952C277.542 83.464 278.139 83.72 278.822 83.72V85H262.31V83.72C262.907 83.72 263.462 83.464 263.974 82.952C264.486 82.44 264.913 81.8427 265.254 81.16C265.681 80.4773 265.979 79.752 266.15 78.984C266.321 78.1307 266.406 77.3627 266.406 76.68V52.872C266.406 49.8 265.979 47.112 265.126 44.808C264.273 42.504 263.121 40.584 261.67 39.048C260.219 37.512 258.555 36.4027 256.678 35.72C254.886 34.952 253.051 34.568 251.174 34.568C249.297 34.568 247.419 34.952 245.542 35.72C243.75 36.488 242.129 37.512 240.678 38.792C239.313 39.9867 238.161 41.4373 237.222 43.144C236.369 44.7653 235.942 46.472 235.942 48.264V76.68C235.942 77.3627 236.027 78.1307 236.198 78.984C236.369 79.752 236.625 80.4773 236.966 81.16C237.393 81.8427 237.819 82.44 238.246 82.952C238.758 83.464 239.355 83.72 240.038 83.72V85H223.398V83.72C223.995 83.72 224.55 83.464 225.062 82.952C225.574 82.44 226.001 81.8427 226.342 81.16C226.769 80.4773 227.067 79.752 227.238 78.984C227.409 78.1307 227.494 77.3627 227.494 76.68V41.352C227.494 39.9013 227.281 38.536 226.854 37.256C226.427 35.8907 225.19 35.1653 223.142 35.08V33.928L235.942 29.832V36.872C236.539 36.1893 237.307 35.464 238.246 34.696C239.185 33.8427 240.294 33.0747 241.574 32.392C242.939 31.624 244.475 31.0267 246.182 30.6C247.974 30.088 250.065 29.832 252.454 29.832C256.465 29.832 259.878 30.5147 262.694 31.88C265.51 33.2453 267.814 35.0373 269.606 37.256C271.398 39.3893 272.678 41.7787 273.446 44.424C274.299 46.984 274.726 49.5013 274.726 51.976V76.68ZM337.731 76.68C337.731 77.3627 337.816 78.1307 337.987 78.984C338.158 79.752 338.414 80.4773 338.755 81.16C339.182 81.8427 339.608 82.44 340.035 82.952C340.547 83.464 341.144 83.72 341.827 83.72V85H325.315V83.72C325.912 83.72 326.467 83.464 326.979 82.952C327.491 82.44 327.918 81.8427 328.259 81.16C328.686 80.4773 328.984 79.752 329.155 78.984C329.326 78.1307 329.411 77.3627 329.411 76.68V52.872C329.411 49.8 328.984 47.112 328.131 44.808C327.278 42.504 326.126 40.584 324.675 39.048C323.224 37.512 321.56 36.4027 319.683 35.72C317.891 34.952 316.056 34.568 314.179 34.568C312.302 34.568 310.424 34.952 308.547 35.72C306.755 36.488 305.134 37.512 303.683 38.792C302.318 39.9867 301.166 41.4373 300.227 43.144C299.374 44.7653 298.947 46.472 298.947 48.264V76.68C298.947 77.3627 299.032 78.1307 299.203 78.984C299.374 79.752 299.63 80.4773 299.971 81.16C300.398 81.8427 300.824 82.44 301.251 82.952C301.763 83.464 302.36 83.72 303.043 83.72V85H286.403V83.72C287 83.72 287.555 83.464 288.067 82.952C288.579 82.44 289.006 81.8427 289.347 81.16C289.774 80.4773 290.072 79.752 290.243 78.984C290.414 78.1307 290.499 77.3627 290.499 76.68V41.352C290.499 39.9013 290.286 38.536 289.859 37.256C289.432 35.8907 288.195 35.1653 286.147 35.08V33.928L298.947 29.832V36.872C299.544 36.1893 300.312 35.464 301.251 34.696C302.19 33.8427 303.299 33.0747 304.579 32.392C305.944 31.624 307.48 31.0267 309.187 30.6C310.979 30.088 313.07 29.832 315.459 29.832C319.47 29.832 322.883 30.5147 325.699 31.88C328.515 33.2453 330.819 35.0373 332.611 37.256C334.403 39.3893 335.683 41.7787 336.451 44.424C337.304 46.984 337.731 49.5013 337.731 51.976V76.68ZM369.76 103.304C368.565 106.888 367.029 109.32 365.152 110.6C363.36 111.88 361.483 112.52 359.52 112.52C358.24 112.52 357.088 112.349 356.064 112.008C355.125 111.667 354.272 111.24 353.504 110.728C352.821 110.301 352.267 109.875 351.84 109.448C351.413 109.021 351.157 108.68 351.072 108.424L355.296 98.056C355.723 99.592 356.149 100.744 356.576 101.512C357.003 102.365 357.6 103.133 358.368 103.816C359.136 104.499 360.075 104.84 361.184 104.84C363.232 104.84 364.853 103.347 366.048 100.36L372.32 84.616L351.712 38.024C351.285 37 350.56 35.848 349.536 34.568C348.597 33.2027 347.275 32.52 345.568 32.52V31.24H362.464V32.52C362.123 32.52 361.696 32.8187 361.184 33.416C360.672 34.0133 360.416 34.7813 360.416 35.72C360.416 36.488 360.587 37.1707 360.928 37.768L376.672 73.992L391.776 37C392.032 36.4027 392.16 35.848 392.16 35.336C392.16 34.4827 391.861 33.8 391.264 33.288C390.752 32.776 390.197 32.52 389.6 32.52V31.24H402.016V32.52C400.651 32.52 399.456 33.1173 398.432 34.312C397.493 35.4213 396.725 36.7013 396.128 38.152L369.76 103.304Z" fill="black"/>
<path d="M49.1667 59.6666C51.0025 59.6635 52.7996 60.3596 54.341 61.6709C55.8824 62.9823 57.102 64.8526 57.8525 67.056C58.6031 69.2595 58.8523 71.7016 58.5703 74.0874C58.2882 76.4731 57.4868 78.7004 56.263 80.5" stroke="#03A9F4" stroke-width="8" stroke-linecap="round" stroke-linejoin="round"/>
<path d="M67.75 82.5H35.9167C31.6953 82.5 27.6468 80.744 24.6619 77.6184C21.6769 74.4928 20 70.2536 20 65.8333C20 58.0978 22.9346 50.6792 28.1583 45.2094C33.382 39.7396 40.4668 36.6667 47.8542 36.6667H48.65L34.325 21.6667C33.5934 20.9006 33.0131 19.9912 32.6172 18.9903C32.2213 17.9894 32.0175 16.9167 32.0175 15.8333C32.0175 13.6454 32.8475 11.5471 34.325 9.99999C35.8025 8.45289 37.8064 7.58374 39.8958 7.58374C40.9304 7.58374 41.9549 7.79712 42.9107 8.2117C43.8666 8.62628 44.7351 9.23394 45.4667 9.99999L58.9958 24.1667H59.7917C72.9229 24.1667 83.6667 35.4166 83.6667 49.1666V53.3333C83.6667 55.5435 82.8282 57.6631 81.3357 59.2259C79.8432 60.7887 77.819 61.6666 75.7083 61.6666H71.7292C68.5631 61.6666 65.5268 62.9836 63.2881 65.3278C61.0494 67.672 59.7917 70.8514 59.7917 74.1666" fill="#03A9F4"/>
<path d="M67.75 82.5H35.9167C31.6953 82.5 27.6468 80.744 24.6619 77.6184C21.6769 74.4928 20 70.2536 20 65.8333C20 58.0978 22.9346 50.6792 28.1583 45.2094C33.382 39.7396 40.4668 36.6667 47.8542 36.6667H48.65L34.325 21.6667C33.5934 20.9006 33.0131 19.9912 32.6172 18.9903C32.2213 17.9894 32.0175 16.9167 32.0175 15.8333C32.0175 13.6454 32.8475 11.5471 34.325 9.99999C35.8025 8.45289 37.8064 7.58374 39.8958 7.58374C40.9304 7.58374 41.9549 7.79712 42.9107 8.2117C43.8666 8.62628 44.7351 9.23394 45.4667 9.99999L58.9958 24.1667H59.7917C72.9229 24.1667 83.6667 35.4166 83.6667 49.1666V53.3333C83.6667 55.5435 82.8282 57.6631 81.3357 59.2259C79.8432 60.7887 77.819 61.6666 75.7083 61.6666H71.7292C68.5631 61.6666 65.5268 62.9836 63.2881 65.3278C61.0494 67.672 59.7917 70.8514 59.7917 74.1666" stroke="#03A9F4" stroke-width="6" stroke-linecap="round" stroke-linejoin="round"/>
<path d="M70 45H70.0001" stroke="white" stroke-width="8" stroke-linecap="round" stroke-linejoin="round"/>
<path d="M75.3333 30.5833V11.6666C75.3333 9.45651 74.6134 7.33689 73.3319 5.77409C72.0504 4.21129 70.3123 3.33331 68.5 3.33331C66.6876 3.33331 64.9496 4.21129 63.6681 5.77409C62.3866 7.33689 61.6666 9.45651 61.6666 11.6666V24.1666" fill="#03A9F4"/>
<path d="M75.3333 30.5833V11.6666C75.3333 9.45651 74.6134 7.33689 73.3319 5.77409C72.0504 4.21129 70.3123 3.33331 68.5 3.33331C66.6876 3.33331 64.9496 4.21129 63.6681 5.77409C62.3866 7.33689 61.6666 9.45651 61.6666 11.6666V24.1666" stroke="#03A9F4" stroke-width="6" stroke-linecap="round" stroke-linejoin="round"/>
<path d="M23.7166 47.1833C22.6953 45.1097 21.1788 43.414 19.3458 42.2958C17.5127 41.1776 15.4392 40.6835 13.3696 40.8716C11.2999 41.0596 9.3202 41.9221 7.66343 43.3574C6.00665 44.7927 4.74181 46.7412 4.01779 48.9734C3.29377 51.2055 3.14072 53.6286 3.57665 55.9572C4.01258 58.2858 5.01934 60.4231 6.47843 62.1174C7.93751 63.8117 9.78818 64.9926 11.8126 65.521C13.837 66.0494 15.9508 65.9033 17.9053 65.1" fill="#03A9F4"/>
<path d="M23.7166 47.1833C22.6953 45.1097 21.1788 43.414 19.3458 42.2958C17.5127 41.1776 15.4392 40.6835 13.3696 40.8716C11.2999 41.0596 9.3202 41.9221 7.66343 43.3574C6.00665 44.7927 4.74181 46.7412 4.01779 48.9734C3.29377 51.2055 3.14072 53.6286 3.57665 55.9572C4.01258 58.2858 5.01934 60.4231 6.47843 62.1174C7.93751 63.8117 9.78818 64.9926 11.8126 65.521C13.837 66.0494 15.9508 65.9033 17.9053 65.1" stroke="#03A9F4" stroke-width="6" stroke-linecap="round" stroke-linejoin="round"/>
</g>
<defs>
<clipPath id="clip0_227_122">
<rect width="403" height="113" fill="white"/>
</clipPath>
</defs>
</svg>
