<svg width="340" height="114" viewBox="0 0 340 114" fill="none" xmlns="http://www.w3.org/2000/svg">
<g clip-path="url(#clip0_227_140)">
<path d="M120.168 84.72H120.808V86H102.76V84.72H103.4C103.997 84.72 104.552 84.464 105.064 83.952C105.576 83.44 106.003 82.8427 106.344 82.16C106.771 81.4773 107.069 80.752 107.24 79.984C107.411 79.1307 107.496 78.3627 107.496 77.68V9.45599C107.496 8.85866 107.411 8.176 107.24 7.408C107.069 6.64 106.771 5.91466 106.344 5.23199C106.003 4.54933 105.576 3.99466 105.064 3.56799C104.552 3.05599 103.997 2.8 103.4 2.8H102.76V1.52H125.032C133.565 1.52 140.136 3.184 144.744 6.51199C149.437 9.84 151.784 14.7467 151.784 21.232C151.784 24.4747 151.229 27.3333 150.12 29.808C149.096 32.1973 147.688 34.288 145.896 36.08C144.104 37.7867 141.971 39.1947 139.496 40.304C137.107 41.328 134.547 42.096 131.816 42.608L141.032 56.688C143.251 60.1013 145.512 63.472 147.816 66.8C150.12 70.0427 152.381 73.4133 154.6 76.912C155.197 77.7653 155.837 78.6613 156.52 79.6C157.288 80.5387 158.056 81.392 158.824 82.16C159.677 82.928 160.531 83.568 161.384 84.08C162.323 84.5067 163.261 84.72 164.2 84.72V86H158.696C155.283 86 152.467 85.1893 150.248 83.568C148.115 81.8613 146.323 79.8987 144.872 77.68C141.032 72.048 137.192 66.3307 133.352 60.528C129.597 54.7253 125.843 49.008 122.088 43.376C121.149 43.2907 120.125 43.2053 119.016 43.12C117.992 42.9493 117.011 42.7787 116.072 42.608V77.68C116.072 78.3627 116.157 79.1307 116.328 79.984C116.499 80.752 116.755 81.4773 117.096 82.16C117.523 82.8427 117.949 83.44 118.376 83.952C118.888 84.464 119.485 84.72 120.168 84.72ZM116.072 5.87199V38.384H116.712C117.395 38.4693 118.461 38.5547 119.912 38.64C121.448 38.64 123.325 38.64 125.544 38.64C127.336 38.64 129.213 38.384 131.176 37.872C133.224 37.2747 135.101 36.336 136.808 35.056C138.6 33.6907 140.051 31.9413 141.16 29.808C142.355 27.6747 142.952 24.9867 142.952 21.744C142.952 18.5013 142.312 15.856 141.032 13.808C139.837 11.76 138.131 10.1387 135.912 8.94399C133.779 7.74933 131.176 6.93866 128.104 6.51199C125.032 6.08533 121.661 5.87199 117.992 5.87199H116.072ZM165.68 60.144C166.021 63.1307 166.747 65.9893 167.856 68.72C168.965 71.3653 170.416 73.712 172.208 75.76C174.085 77.808 176.347 79.472 178.992 80.752C181.637 81.9467 184.709 82.544 188.208 82.544C190.085 82.544 192.048 82.288 194.096 81.776C196.229 81.1787 198.192 80.368 199.984 79.344C201.776 78.32 203.355 77.0827 204.72 75.632C206.171 74.096 207.152 72.3893 207.664 70.512H208.816V80.112C208.304 80.112 207.707 80.2827 207.024 80.624C206.427 80.9653 205.701 81.392 204.848 81.904C203.141 82.928 200.837 84.0373 197.936 85.232C195.035 86.3413 191.195 86.896 186.416 86.896C182.576 86.896 178.907 86.3413 175.408 85.232C171.995 84.1227 168.965 82.416 166.32 80.112C163.675 77.808 161.541 74.864 159.92 71.28C158.384 67.696 157.616 63.4293 157.616 58.48C157.616 55.3227 158.128 52.1227 159.152 48.88C160.261 45.6373 161.883 42.736 164.016 40.176C166.235 37.5307 169.051 35.3973 172.464 33.776C175.877 32.1547 179.973 31.344 184.752 31.344C189.019 31.344 192.731 32.0693 195.888 33.52C199.131 34.9707 201.776 36.976 203.824 39.536C205.957 42.096 207.536 45.1253 208.56 48.624C209.584 52.1227 210.096 55.9627 210.096 60.144H165.68ZM184.24 35.568C181.253 35.568 178.651 36.1653 176.432 37.36C174.299 38.5547 172.464 40.0907 170.928 41.968C169.392 43.8453 168.197 45.9787 167.344 48.368C166.491 50.7573 165.936 53.1467 165.68 55.536H202.16C202.075 53.0613 201.605 50.6293 200.752 48.24C199.984 45.8507 198.875 43.7173 197.424 41.84C195.973 39.9627 194.139 38.4693 191.92 37.36C189.701 36.1653 187.141 35.568 184.24 35.568ZM216.157 86V84.72C216.84 84.72 217.437 84.464 217.949 83.952C218.461 83.44 218.888 82.8427 219.229 82.16C219.656 81.4773 219.954 80.752 220.125 79.984C220.296 79.1307 220.381 78.3627 220.381 77.68V12.144C220.381 10.6933 220.168 9.328 219.741 8.048C219.314 6.768 218.034 6.08533 215.901 6V4.71999L228.829 0.751999V77.68C228.829 78.3627 228.914 79.1307 229.085 79.984C229.256 80.752 229.512 81.4773 229.853 82.16C230.28 82.8427 230.706 83.44 231.133 83.952C231.645 84.464 232.242 84.72 232.925 84.72V86H216.157ZM273.942 86V79.472L273.302 80.112C271.169 82.2453 268.694 83.9093 265.878 85.104C263.147 86.2987 259.819 86.896 255.894 86.896C252.907 86.896 250.347 86.5547 248.214 85.872C246.081 85.1893 244.331 84.2507 242.966 83.056C241.601 81.776 240.577 80.3253 239.894 78.704C239.297 77.0827 238.998 75.376 238.998 73.584C238.998 70.6827 239.766 68.1227 241.302 65.904C242.923 63.6853 245.227 61.7227 248.214 60.016C251.201 58.3093 254.827 56.7733 259.094 55.408C263.446 53.9573 268.395 52.5493 273.942 51.184C273.771 47.856 273.089 45.168 271.894 43.12C270.699 41.072 269.291 39.4933 267.67 38.384C266.049 37.1893 264.342 36.4213 262.55 36.08C260.758 35.6533 259.222 35.44 257.942 35.44C255.723 35.44 253.761 35.7813 252.054 36.464C250.433 37.1467 248.982 38.0427 247.702 39.152C246.507 40.176 245.483 41.328 244.63 42.608C243.777 43.8027 243.094 44.9547 242.582 46.064H241.43V36.72C242.113 36.6347 242.753 36.4213 243.35 36.08C243.947 35.7387 244.673 35.3973 245.526 35.056C246.806 34.544 248.555 33.8187 250.774 32.88C252.993 31.856 256.107 31.344 260.118 31.344C264.811 31.344 268.609 31.9413 271.51 33.136C274.411 34.3307 276.63 35.9093 278.166 37.872C279.787 39.8347 280.854 42.096 281.366 44.656C281.878 47.1307 282.134 49.6907 282.134 52.336V77.68C282.134 79.3867 282.518 81.008 283.286 82.544C284.054 83.9947 285.078 84.72 286.358 84.72V86H273.942ZM273.942 73.84V55.536L272.662 55.792C270.614 56.304 268.097 56.9867 265.11 57.84C262.209 58.6933 259.435 59.8027 256.79 61.168C254.145 62.5333 251.883 64.1547 250.006 66.032C248.129 67.9093 247.19 70.0853 247.19 72.56C247.19 75.2907 248.299 77.552 250.518 79.344C252.737 81.136 255.638 82.032 259.222 82.032C262.038 82.032 264.513 81.4347 266.646 80.24C268.779 78.96 270.742 77.3387 272.534 75.376L273.942 73.84ZM307.01 104.304C305.815 107.888 304.279 110.32 302.402 111.6C300.61 112.88 298.733 113.52 296.77 113.52C295.49 113.52 294.338 113.349 293.314 113.008C292.375 112.667 291.522 112.24 290.754 111.728C290.071 111.301 289.517 110.875 289.09 110.448C288.663 110.021 288.407 109.68 288.322 109.424L292.546 99.056C292.973 100.592 293.399 101.744 293.826 102.512C294.253 103.365 294.85 104.133 295.618 104.816C296.386 105.499 297.325 105.84 298.434 105.84C300.482 105.84 302.103 104.347 303.298 101.36L309.57 85.616L288.962 39.024C288.535 38 287.81 36.848 286.786 35.568C285.847 34.2027 284.525 33.52 282.818 33.52V32.24H299.714V33.52C299.373 33.52 298.946 33.8187 298.434 34.416C297.922 35.0133 297.666 35.7813 297.666 36.72C297.666 37.488 297.837 38.1707 298.178 38.768L313.922 74.992L329.026 38C329.282 37.4027 329.41 36.848 329.41 36.336C329.41 35.4827 329.111 34.8 328.514 34.288C328.002 33.776 327.447 33.52 326.85 33.52V32.24H339.266V33.52C337.901 33.52 336.706 34.1173 335.682 35.312C334.743 36.4213 333.975 37.7013 333.378 39.152L307.01 104.304Z" fill="black"/>
<path d="M70.1111 27.4C64.4114 15.8253 52.5571 7.9 38.8592 7.9C19.6074 7.9 4 23.6152 4 43M7.88889 58.6C13.5886 70.1747 25.4429 78.1 39.1408 78.1C58.3926 78.1 74 62.3848 74 43M27.3333 58.6H4V82M74 4V27.4H50.6667" stroke="#37B4B0" stroke-width="6.67"/>
</g>
<defs>
<clipPath id="clip0_227_140">
<rect width="340" height="114" fill="white"/>
</clipPath>
</defs>
</svg>
