<svg width="458" height="153" viewBox="0 0 458 153" fill="none" xmlns="http://www.w3.org/2000/svg">
<g clip-path="url(#clip0_12_2)">
<path class="bunny-color-black" d="M119.76 121.72H120.4C120.997 121.72 121.552 121.464 122.064 120.952C122.576 120.44 123.003 119.843 123.344 119.16C123.771 118.477 124.069 117.752 124.24 116.984C124.411 116.131 124.496 115.363 124.496 114.68V46.584C124.496 45.9867 124.411 45.304 124.24 44.536C124.069 43.768 123.771 43.0427 123.344 42.36C123.003 41.592 122.533 40.9947 121.936 40.568C121.424 40.056 120.827 39.8 120.144 39.8H119.504V38.52H140.496C148.432 38.52 154.619 40.2693 159.056 43.768C163.579 47.2667 165.84 51.9173 165.84 57.72C165.84 60.1947 165.413 62.4133 164.56 64.376C163.707 66.3387 162.597 68.088 161.232 69.624C159.952 71.16 158.544 72.4827 157.008 73.592C155.472 74.616 154.021 75.4693 152.656 76.152C156.24 76.8347 159.227 77.9867 161.616 79.608C164.005 81.2293 165.925 83.1067 167.376 85.24C168.912 87.288 169.979 89.5067 170.576 91.896C171.173 94.2853 171.472 96.632 171.472 98.936C171.472 103.373 170.661 107.128 169.04 110.2C167.419 113.187 165.243 115.661 162.512 117.624C159.867 119.501 156.795 120.867 153.296 121.72C149.883 122.573 146.341 123 142.672 123H119.76V121.72ZM162.768 99.704C162.085 93.1333 159.867 88.056 156.112 84.472C152.357 80.888 147.067 79.096 140.24 79.096H133.072V118.776H140.496C147.408 118.776 152.827 117.24 156.752 114.168C160.763 111.011 162.768 106.659 162.768 101.112V99.704ZM157.52 58.872C157.264 53.9227 155.515 49.9973 152.272 47.096C149.115 44.1947 144.848 42.744 139.472 42.744H133.072V75H139.728C143.312 75 146.213 74.5307 148.432 73.592C150.736 72.6533 152.571 71.4587 153.936 70.008C155.301 68.472 156.24 66.808 156.752 65.016C157.264 63.224 157.52 61.4747 157.52 59.768V58.872ZM227.953 114.68C227.953 115.277 228.038 116.003 228.209 116.856C228.38 117.624 228.593 118.392 228.849 119.16C229.19 119.843 229.617 120.44 230.129 120.952C230.641 121.464 231.238 121.72 231.921 121.72V123H219.505V115.96C218.225 117.837 216.348 119.672 213.873 121.464C211.398 123.256 208.198 124.152 204.273 124.152C199.324 124.152 195.398 123.299 192.497 121.592C189.596 119.885 187.377 117.709 185.841 115.064C184.305 112.419 183.324 109.56 182.897 106.488C182.47 103.331 182.257 100.387 182.257 97.656V79.352C182.257 78.584 182.214 77.8587 182.129 77.176C182.129 76.408 181.958 75.7253 181.617 75.128C181.361 74.5307 180.934 74.0613 180.337 73.72C179.74 73.2933 178.886 73.08 177.777 73.08V71.928L190.705 67.832V100.472C190.705 106.957 192.113 111.736 194.929 114.808C197.745 117.88 201.201 119.416 205.297 119.416C207.516 119.416 209.478 118.947 211.185 118.008C212.977 116.984 214.47 115.789 215.665 114.424C216.945 113.059 217.884 111.651 218.481 110.2C219.164 108.749 219.505 107.555 219.505 106.616V79.352C219.505 78.584 219.462 77.8587 219.377 77.176C219.377 76.408 219.206 75.7253 218.865 75.128C218.609 74.5307 218.182 74.0613 217.585 73.72C216.988 73.2933 216.134 73.08 215.025 73.08V71.928L227.953 67.832V114.68ZM290.726 114.68C290.726 115.363 290.811 116.131 290.982 116.984C291.153 117.752 291.409 118.477 291.75 119.16C292.177 119.843 292.603 120.44 293.03 120.952C293.542 121.464 294.139 121.72 294.822 121.72V123H278.31V121.72C278.907 121.72 279.462 121.464 279.974 120.952C280.486 120.44 280.913 119.843 281.254 119.16C281.681 118.477 281.979 117.752 282.15 116.984C282.321 116.131 282.406 115.363 282.406 114.68V90.872C282.406 87.8 281.979 85.112 281.126 82.808C280.273 80.504 279.121 78.584 277.67 77.048C276.219 75.512 274.555 74.4027 272.678 73.72C270.886 72.952 269.051 72.568 267.174 72.568C265.297 72.568 263.419 72.952 261.542 73.72C259.75 74.488 258.129 75.512 256.678 76.792C255.313 77.9867 254.161 79.4373 253.222 81.144C252.369 82.7653 251.942 84.472 251.942 86.264V114.68C251.942 115.363 252.027 116.131 252.198 116.984C252.369 117.752 252.625 118.477 252.966 119.16C253.393 119.843 253.819 120.44 254.246 120.952C254.758 121.464 255.355 121.72 256.038 121.72V123H239.398V121.72C239.995 121.72 240.55 121.464 241.062 120.952C241.574 120.44 242.001 119.843 242.342 119.16C242.769 118.477 243.067 117.752 243.238 116.984C243.409 116.131 243.494 115.363 243.494 114.68V79.352C243.494 77.9013 243.281 76.536 242.854 75.256C242.427 73.8907 241.19 73.1653 239.142 73.08V71.928L251.942 67.832V74.872C252.539 74.1893 253.307 73.464 254.246 72.696C255.185 71.8427 256.294 71.0747 257.574 70.392C258.939 69.624 260.475 69.0267 262.182 68.6C263.974 68.088 266.065 67.832 268.454 67.832C272.465 67.832 275.878 68.5147 278.694 69.88C281.51 71.2453 283.814 73.0373 285.606 75.256C287.398 77.3893 288.678 79.7787 289.446 82.424C290.299 84.984 290.726 87.5013 290.726 89.976V114.68ZM353.731 114.68C353.731 115.363 353.816 116.131 353.987 116.984C354.158 117.752 354.414 118.477 354.755 119.16C355.182 119.843 355.608 120.44 356.035 120.952C356.547 121.464 357.144 121.72 357.827 121.72V123H341.315V121.72C341.912 121.72 342.467 121.464 342.979 120.952C343.491 120.44 343.918 119.843 344.259 119.16C344.686 118.477 344.984 117.752 345.155 116.984C345.326 116.131 345.411 115.363 345.411 114.68V90.872C345.411 87.8 344.984 85.112 344.131 82.808C343.278 80.504 342.126 78.584 340.675 77.048C339.224 75.512 337.56 74.4027 335.683 73.72C333.891 72.952 332.056 72.568 330.179 72.568C328.302 72.568 326.424 72.952 324.547 73.72C322.755 74.488 321.134 75.512 319.683 76.792C318.318 77.9867 317.166 79.4373 316.227 81.144C315.374 82.7653 314.947 84.472 314.947 86.264V114.68C314.947 115.363 315.032 116.131 315.203 116.984C315.374 117.752 315.63 118.477 315.971 119.16C316.398 119.843 316.824 120.44 317.251 120.952C317.763 121.464 318.36 121.72 319.043 121.72V123H302.403V121.72C303 121.72 303.555 121.464 304.067 120.952C304.579 120.44 305.006 119.843 305.347 119.16C305.774 118.477 306.072 117.752 306.243 116.984C306.414 116.131 306.499 115.363 306.499 114.68V79.352C306.499 77.9013 306.286 76.536 305.859 75.256C305.432 73.8907 304.195 73.1653 302.147 73.08V71.928L314.947 67.832V74.872C315.544 74.1893 316.312 73.464 317.251 72.696C318.19 71.8427 319.299 71.0747 320.579 70.392C321.944 69.624 323.48 69.0267 325.187 68.6C326.979 68.088 329.07 67.832 331.459 67.832C335.47 67.832 338.883 68.5147 341.699 69.88C344.515 71.2453 346.819 73.0373 348.611 75.256C350.403 77.3893 351.683 79.7787 352.451 82.424C353.304 84.984 353.731 87.5013 353.731 89.976V114.68ZM385.76 141.304C384.565 144.888 383.029 147.32 381.152 148.6C379.36 149.88 377.483 150.52 375.52 150.52C374.24 150.52 373.088 150.349 372.064 150.008C371.125 149.667 370.272 149.24 369.504 148.728C368.821 148.301 368.267 147.875 367.84 147.448C367.413 147.021 367.157 146.68 367.072 146.424L371.296 136.056C371.723 137.592 372.149 138.744 372.576 139.512C373.003 140.365 373.6 141.133 374.368 141.816C375.136 142.499 376.075 142.84 377.184 142.84C379.232 142.84 380.853 141.347 382.048 138.36L388.32 122.616L367.712 76.024C367.285 75 366.56 73.848 365.536 72.568C364.597 71.2027 363.275 70.52 361.568 70.52V69.24H378.464V70.52C378.123 70.52 377.696 70.8187 377.184 71.416C376.672 72.0133 376.416 72.7813 376.416 73.72C376.416 74.488 376.587 75.1707 376.928 75.768L392.672 111.992L407.776 75C408.032 74.4027 408.16 73.848 408.16 73.336C408.16 72.4827 407.861 71.8 407.264 71.288C406.752 70.776 406.197 70.52 405.6 70.52V69.24H418.016V70.52C416.651 70.52 415.456 71.1173 414.432 72.312C413.493 73.4213 412.725 74.7013 412.128 76.152L385.76 141.304Z" fill="black"/>
<path d="M65.1667 97.6667C67.0024 97.6635 68.7995 98.3596 70.3409 99.671C71.8823 100.982 73.1019 102.853 73.8525 105.056C74.603 107.259 74.8523 109.702 74.5702 112.087C74.2881 114.473 73.4868 116.7 72.263 118.5" stroke="#03A9F4" stroke-width="8" stroke-linecap="round" stroke-linejoin="round"/>
<path d="M83.75 120.5H51.9167C47.6953 120.5 43.6468 118.744 40.6619 115.618C37.6769 112.493 36 108.254 36 103.833C36 96.0979 38.9346 88.6792 44.1583 83.2094C49.382 77.7396 56.4668 74.6667 63.8542 74.6667H64.65L50.325 59.6667C49.5934 58.9006 49.0131 57.9912 48.6172 56.9903C48.2213 55.9894 48.0175 54.9167 48.0175 53.8333C48.0175 51.6454 48.8475 49.5471 50.325 48C51.8025 46.4529 53.8064 45.5838 55.8958 45.5838C56.9304 45.5838 57.9549 45.7971 58.9107 46.2117C59.8666 46.6263 60.7351 47.234 61.4667 48L74.9958 62.1667H75.7917C88.9229 62.1667 99.6667 73.4167 99.6667 87.1667V91.3333C99.6667 93.5435 98.8282 95.6631 97.3357 97.2259C95.8432 98.7887 93.819 99.6667 91.7083 99.6667H87.7292C84.5631 99.6667 81.5268 100.984 79.2881 103.328C77.0494 105.672 75.7917 108.851 75.7917 112.167" fill="#03A9F4"/>
<path d="M83.75 120.5H51.9167C47.6953 120.5 43.6468 118.744 40.6619 115.618C37.6769 112.493 36 108.254 36 103.833C36 96.0978 38.9346 88.6792 44.1583 83.2094C49.382 77.7396 56.4668 74.6667 63.8542 74.6667H64.65L50.325 59.6667C49.5934 58.9006 49.0131 57.9912 48.6172 56.9903C48.2213 55.9894 48.0175 54.9167 48.0175 53.8333C48.0175 51.6454 48.8475 49.5471 50.325 48C51.8025 46.4529 53.8064 45.5838 55.8958 45.5838C56.9304 45.5838 57.9549 45.7971 58.9107 46.2117C59.8666 46.6263 60.7351 47.234 61.4667 48L74.9958 62.1667H75.7917C88.9229 62.1667 99.6667 73.4167 99.6667 87.1667V91.3333C99.6667 93.5435 98.8282 95.6631 97.3357 97.2259C95.8432 98.7887 93.819 99.6667 91.7083 99.6667H87.7292C84.5631 99.6667 81.5268 100.984 79.2881 103.328C77.0494 105.672 75.7917 108.851 75.7917 112.167" stroke="#03A9F4" stroke-width="6" stroke-linecap="round" stroke-linejoin="round"/>
<path d="M86 83H86.0001" stroke="white" stroke-width="8" stroke-linecap="round" stroke-linejoin="round"/>
<path d="M91.3334 68.5833V49.6667C91.3334 47.4565 90.6134 45.3369 89.3319 43.7741C88.0504 42.2113 86.3123 41.3333 84.5 41.3333C82.6877 41.3333 80.9496 42.2113 79.6681 43.7741C78.3866 45.3369 77.6667 47.4565 77.6667 49.6667V62.1667" fill="#03A9F4"/>
<path d="M91.3334 68.5833V49.6667C91.3334 47.4565 90.6134 45.3369 89.3319 43.7741C88.0504 42.2113 86.3123 41.3333 84.5 41.3333C82.6877 41.3333 80.9496 42.2113 79.6681 43.7741C78.3866 45.3369 77.6667 47.4565 77.6667 49.6667V62.1667" stroke="#03A9F4" stroke-width="6" stroke-linecap="round" stroke-linejoin="round"/>
<path d="M39.7166 85.1833C38.6953 83.1097 37.1788 81.414 35.3458 80.2958C33.5127 79.1776 31.4392 78.6835 29.3696 78.8716C27.2999 79.0596 25.3202 79.9221 23.6634 81.3574C22.0067 82.7927 20.7418 84.7412 20.0178 86.9734C19.2938 89.2055 19.1407 91.6286 19.5766 93.9572C20.0126 96.2858 21.0193 98.4231 22.4784 100.117C23.9375 101.812 25.7882 102.993 27.8126 103.521C29.837 104.049 31.9508 103.903 33.9053 103.1" fill="#03A9F4"/>
<path d="M39.7166 85.1833C38.6953 83.1097 37.1788 81.414 35.3458 80.2958C33.5127 79.1776 31.4392 78.6835 29.3696 78.8716C27.2999 79.0596 25.3202 79.9221 23.6634 81.3574C22.0067 82.7927 20.7418 84.7412 20.0178 86.9734C19.2938 89.2055 19.1407 91.6286 19.5766 93.9572C20.0126 96.2858 21.0193 98.4231 22.4784 100.117C23.9375 101.812 25.7882 102.993 27.8126 103.521C29.837 104.049 31.9508 103.903 33.9053 103.1" stroke="#03A9F4" stroke-width="6" stroke-linecap="round" stroke-linejoin="round"/>
</g>
<defs>
<clipPath id="clip0_12_2">
<rect width="458" height="153" fill="white"/>
</clipPath>
<style>
    .bunny-color-black {
        fill: black
    }

    @media (prefers-color-scheme: dark) {
      .bunny-color-black {
        fill: white
      }
    }
</style>
</defs>
</svg>
