<svg width="669" height="306" viewBox="0 0 669 306" fill="none" xmlns="http://www.w3.org/2000/svg">
<path d="M243.64 139V83H278.44V91.48H252.92V107.16H274.76V115.64H252.92V139H243.64ZM301.638 139.96C297.744 139.96 294.278 139.08 291.238 137.32C288.251 135.507 285.878 133.027 284.118 129.88C282.411 126.733 281.558 123.107 281.558 119C281.558 114.893 282.438 111.267 284.198 108.12C285.958 104.973 288.358 102.52 291.398 100.76C294.491 98.9467 298.011 98.04 301.958 98.04C305.531 98.04 308.758 98.9733 311.638 100.84C314.518 102.653 316.784 105.293 318.438 108.76C320.144 112.227 320.998 116.36 320.998 121.16H289.558L290.758 120.04C290.758 122.493 291.291 124.627 292.358 126.44C293.424 128.2 294.838 129.56 296.598 130.52C298.358 131.48 300.304 131.96 302.438 131.96C304.891 131.96 306.918 131.427 308.518 130.36C310.118 129.24 311.371 127.8 312.278 126.04L320.198 129.4C319.078 131.533 317.638 133.4 315.878 135C314.171 136.6 312.118 137.827 309.718 138.68C307.371 139.533 304.678 139.96 301.638 139.96ZM291.318 115.4L290.038 114.28H312.598L311.398 115.4C311.398 113.213 310.918 111.427 309.958 110.04C308.998 108.6 307.771 107.533 306.278 106.84C304.838 106.093 303.318 105.72 301.718 105.72C300.118 105.72 298.518 106.093 296.918 106.84C295.318 107.533 293.984 108.6 292.918 110.04C291.851 111.427 291.318 113.213 291.318 115.4ZM355.14 139L354.74 131.56V83H363.62V139H355.14ZM342.1 139.96C338.473 139.96 335.3 139.107 332.58 137.4C329.913 135.64 327.807 133.187 326.26 130.04C324.767 126.893 324.02 123.213 324.02 119C324.02 114.733 324.767 111.053 326.26 107.96C327.807 104.813 329.913 102.387 332.58 100.68C335.3 98.92 338.473 98.04 342.1 98.04C345.46 98.04 348.34 98.92 350.74 100.68C353.193 102.387 355.06 104.813 356.34 107.96C357.62 111.053 358.26 114.733 358.26 119C358.26 123.213 357.62 126.893 356.34 130.04C355.06 133.187 353.193 135.64 350.74 137.4C348.34 139.107 345.46 139.96 342.1 139.96ZM344.34 131.8C346.367 131.8 348.153 131.267 349.7 130.2C351.3 129.08 352.527 127.56 353.38 125.64C354.287 123.72 354.74 121.507 354.74 119C354.74 116.493 354.287 114.28 353.38 112.36C352.527 110.44 351.3 108.947 349.7 107.88C348.153 106.813 346.34 106.28 344.26 106.28C342.127 106.28 340.233 106.813 338.58 107.88C336.927 108.947 335.62 110.44 334.66 112.36C333.753 114.28 333.273 116.493 333.22 119C333.273 121.507 333.753 123.72 334.66 125.64C335.62 127.56 336.927 129.08 338.58 130.2C340.287 131.267 342.207 131.8 344.34 131.8ZM389.766 139.96C385.872 139.96 382.406 139.08 379.366 137.32C376.379 135.507 374.006 133.027 372.246 129.88C370.539 126.733 369.686 123.107 369.686 119C369.686 114.893 370.566 111.267 372.326 108.12C374.086 104.973 376.486 102.52 379.526 100.76C382.619 98.9467 386.139 98.04 390.086 98.04C393.659 98.04 396.886 98.9733 399.766 100.84C402.646 102.653 404.912 105.293 406.566 108.76C408.272 112.227 409.126 116.36 409.126 121.16H377.686L378.886 120.04C378.886 122.493 379.419 124.627 380.486 126.44C381.552 128.2 382.966 129.56 384.726 130.52C386.486 131.48 388.432 131.96 390.566 131.96C393.019 131.96 395.046 131.427 396.646 130.36C398.246 129.24 399.499 127.8 400.406 126.04L408.326 129.4C407.206 131.533 405.766 133.4 404.006 135C402.299 136.6 400.246 137.827 397.846 138.68C395.499 139.533 392.806 139.96 389.766 139.96ZM379.446 115.4L378.166 114.28H400.726L399.526 115.4C399.526 113.213 399.046 111.427 398.086 110.04C397.126 108.6 395.899 107.533 394.406 106.84C392.966 106.093 391.446 105.72 389.846 105.72C388.246 105.72 386.646 106.093 385.046 106.84C383.446 107.533 382.112 108.6 381.046 110.04C379.979 111.427 379.446 113.213 379.446 115.4ZM420.308 117.72C420.308 113.4 421.135 109.853 422.788 107.08C424.441 104.307 426.575 102.253 429.188 100.92C431.855 99.5333 434.628 98.84 437.508 98.84V107.4C435.055 107.4 432.735 107.747 430.548 108.44C428.415 109.08 426.681 110.147 425.348 111.64C424.015 113.133 423.348 115.107 423.348 117.56L420.308 117.72ZM414.388 139V99H423.348V139H414.388ZM466.251 139L465.851 131.48V118.44C465.851 115.72 465.557 113.453 464.971 111.64C464.437 109.773 463.531 108.36 462.251 107.4C461.024 106.387 459.371 105.88 457.291 105.88C455.371 105.88 453.691 106.28 452.251 107.08C450.811 107.88 449.584 109.133 448.571 110.84L440.731 107.96C441.584 106.2 442.704 104.573 444.091 103.08C445.531 101.533 447.317 100.307 449.451 99.4C451.637 98.4933 454.251 98.04 457.291 98.04C461.184 98.04 464.437 98.8133 467.051 100.36C469.664 101.853 471.584 104.013 472.811 106.84C474.091 109.667 474.731 113.08 474.731 117.08L474.491 139H466.251ZM454.731 139.96C449.931 139.96 446.197 138.893 443.531 136.76C440.917 134.627 439.611 131.613 439.611 127.72C439.611 123.56 440.997 120.387 443.771 118.2C446.597 116.013 450.517 114.92 455.531 114.92H466.251V121.8H458.411C454.837 121.8 452.331 122.307 450.891 123.32C449.451 124.28 448.731 125.667 448.731 127.48C448.731 129.027 449.344 130.253 450.571 131.16C451.851 132.013 453.611 132.44 455.851 132.44C457.877 132.44 459.637 131.987 461.131 131.08C462.624 130.173 463.771 128.973 464.571 127.48C465.424 125.987 465.851 124.307 465.851 122.44H468.491C468.491 127.88 467.397 132.173 465.211 135.32C463.024 138.413 459.531 139.96 454.731 139.96ZM498.124 139.96C493.91 139.96 490.684 138.92 488.444 136.84C486.257 134.707 485.164 131.667 485.164 127.72V86.52H494.044V126.04C494.044 127.907 494.47 129.32 495.324 130.28C496.23 131.24 497.537 131.72 499.244 131.72C499.777 131.72 500.364 131.613 501.004 131.4C501.644 131.187 502.364 130.787 503.164 130.2L506.444 137C505.057 137.96 503.67 138.68 502.284 139.16C500.897 139.693 499.51 139.96 498.124 139.96ZM478.524 106.68V99H504.844V106.68H478.524ZM529.303 139.96C525.41 139.96 521.943 139.08 518.903 137.32C515.916 135.507 513.543 133.027 511.783 129.88C510.076 126.733 509.223 123.107 509.223 119C509.223 114.893 510.103 111.267 511.863 108.12C513.623 104.973 516.023 102.52 519.063 100.76C522.156 98.9467 525.676 98.04 529.623 98.04C533.196 98.04 536.423 98.9733 539.303 100.84C542.183 102.653 544.45 105.293 546.103 108.76C547.81 112.227 548.663 116.36 548.663 121.16H517.223L518.423 120.04C518.423 122.493 518.956 124.627 520.023 126.44C521.09 128.2 522.503 129.56 524.263 130.52C526.023 131.48 527.97 131.96 530.103 131.96C532.556 131.96 534.583 131.427 536.183 130.36C537.783 129.24 539.036 127.8 539.943 126.04L547.863 129.4C546.743 131.533 545.303 133.4 543.543 135C541.836 136.6 539.783 137.827 537.383 138.68C535.036 139.533 532.343 139.96 529.303 139.96ZM518.983 115.4L517.703 114.28H540.263L539.063 115.4C539.063 113.213 538.583 111.427 537.623 110.04C536.663 108.6 535.436 107.533 533.943 106.84C532.503 106.093 530.983 105.72 529.383 105.72C527.783 105.72 526.183 106.093 524.583 106.84C522.983 107.533 521.65 108.6 520.583 110.04C519.516 111.427 518.983 113.213 518.983 115.4ZM582.806 139L582.406 131.56V83H591.286V139H582.806ZM569.766 139.96C566.139 139.96 562.966 139.107 560.246 137.4C557.579 135.64 555.472 133.187 553.926 130.04C552.432 126.893 551.686 123.213 551.686 119C551.686 114.733 552.432 111.053 553.926 107.96C555.472 104.813 557.579 102.387 560.246 100.68C562.966 98.92 566.139 98.04 569.766 98.04C573.126 98.04 576.006 98.92 578.406 100.68C580.859 102.387 582.726 104.813 584.006 107.96C585.286 111.053 585.926 114.733 585.926 119C585.926 123.213 585.286 126.893 584.006 130.04C582.726 133.187 580.859 135.64 578.406 137.4C576.006 139.107 573.126 139.96 569.766 139.96ZM572.006 131.8C574.032 131.8 575.819 131.267 577.366 130.2C578.966 129.08 580.192 127.56 581.046 125.64C581.952 123.72 582.406 121.507 582.406 119C582.406 116.493 581.952 114.28 581.046 112.36C580.192 110.44 578.966 108.947 577.366 107.88C575.819 106.813 574.006 106.28 571.926 106.28C569.792 106.28 567.899 106.813 566.246 107.88C564.592 108.947 563.286 110.44 562.326 112.36C561.419 114.28 560.939 116.493 560.886 119C560.939 121.507 561.419 123.72 562.326 125.64C563.286 127.56 564.592 129.08 566.246 130.2C567.952 131.267 569.872 131.8 572.006 131.8Z" fill="#234363"/>
<path d="M243.806 233V175.6H264.06C267.996 175.6 271.467 176.365 274.474 177.896C277.481 179.427 279.831 181.559 281.526 184.292C283.221 186.971 284.068 190.087 284.068 193.64C284.068 197.193 283.166 200.337 281.362 203.07C279.613 205.803 277.18 207.963 274.064 209.548C270.948 211.079 267.422 211.844 263.486 211.844H253.318V233H243.806ZM275.622 233L262.174 209.712L269.554 204.628L286.364 233H275.622ZM253.318 203.07H264.47C266.329 203.07 267.969 202.66 269.39 201.84C270.866 201.02 272.041 199.899 272.916 198.478C273.845 197.057 274.31 195.444 274.31 193.64C274.31 190.907 273.326 188.665 271.358 186.916C269.39 185.167 266.848 184.292 263.732 184.292H253.318V203.07ZM314.221 233.984C310.23 233.984 306.677 233.082 303.561 231.278C300.5 229.419 298.067 226.877 296.263 223.652C294.514 220.427 293.639 216.709 293.639 212.5C293.639 208.291 294.541 204.573 296.345 201.348C298.149 198.123 300.609 195.608 303.725 193.804C306.896 191.945 310.504 191.016 314.549 191.016C318.212 191.016 321.519 191.973 324.471 193.886C327.423 195.745 329.746 198.451 331.441 202.004C333.19 205.557 334.065 209.794 334.065 214.714H301.839L303.069 213.566C303.069 216.081 303.616 218.267 304.709 220.126C305.802 221.93 307.251 223.324 309.055 224.308C310.859 225.292 312.854 225.784 315.041 225.784C317.556 225.784 319.633 225.237 321.273 224.144C322.913 222.996 324.198 221.52 325.127 219.716L333.245 223.16C332.097 225.347 330.621 227.26 328.817 228.9C327.068 230.54 324.963 231.797 322.503 232.672C320.098 233.547 317.337 233.984 314.221 233.984ZM303.643 208.81L302.331 207.662H325.455L324.225 208.81C324.225 206.569 323.733 204.737 322.749 203.316C321.765 201.84 320.508 200.747 318.977 200.036C317.501 199.271 315.943 198.888 314.303 198.888C312.663 198.888 311.023 199.271 309.383 200.036C307.743 200.747 306.376 201.84 305.283 203.316C304.19 204.737 303.643 206.569 303.643 208.81ZM357.663 233.984C354.93 233.984 352.415 233.574 350.119 232.754C347.823 231.934 345.855 230.786 344.215 229.31C342.575 227.779 341.318 226.003 340.443 223.98L348.397 220.454C349.217 221.985 350.42 223.269 352.005 224.308C353.645 225.347 355.449 225.866 357.417 225.866C359.549 225.866 361.244 225.511 362.501 224.8C363.813 224.035 364.469 222.996 364.469 221.684C364.469 220.427 363.977 219.47 362.993 218.814C362.009 218.103 360.615 217.529 358.811 217.092L354.957 216.026C351.076 215.042 348.042 213.484 345.855 211.352C343.668 209.165 342.575 206.678 342.575 203.89C342.575 199.79 343.887 196.619 346.511 194.378C349.19 192.137 353.016 191.016 357.991 191.016C360.506 191.016 362.802 191.399 364.879 192.164C367.011 192.875 368.842 193.913 370.373 195.28C371.904 196.592 372.97 198.15 373.571 199.954L365.945 203.398C365.398 202.031 364.36 200.993 362.829 200.282C361.298 199.517 359.604 199.134 357.745 199.134C355.886 199.134 354.438 199.544 353.399 200.364C352.36 201.129 351.841 202.223 351.841 203.644C351.841 204.464 352.306 205.229 353.235 205.94C354.164 206.596 355.504 207.143 357.253 207.58L362.091 208.728C364.77 209.384 366.956 210.423 368.651 211.844C370.346 213.211 371.603 214.769 372.423 216.518C373.243 218.213 373.653 219.935 373.653 221.684C373.653 224.144 372.942 226.303 371.521 228.162C370.154 230.021 368.268 231.469 365.863 232.508C363.458 233.492 360.724 233.984 357.663 233.984ZM400.862 233.984C396.872 233.984 393.318 233.082 390.202 231.278C387.141 229.419 384.708 226.877 382.904 223.652C381.155 220.427 380.28 216.709 380.28 212.5C380.28 208.291 381.182 204.573 382.986 201.348C384.79 198.123 387.25 195.608 390.366 193.804C393.537 191.945 397.145 191.016 401.19 191.016C404.853 191.016 408.16 191.973 411.112 193.886C414.064 195.745 416.388 198.451 418.082 202.004C419.832 205.557 420.706 209.794 420.706 214.714H388.48L389.71 213.566C389.71 216.081 390.257 218.267 391.35 220.126C392.444 221.93 393.892 223.324 395.696 224.308C397.5 225.292 399.496 225.784 401.682 225.784C404.197 225.784 406.274 225.237 407.914 224.144C409.554 222.996 410.839 221.52 411.768 219.716L419.886 223.16C418.738 225.347 417.262 227.26 415.458 228.9C413.709 230.54 411.604 231.797 409.144 232.672C406.739 233.547 403.978 233.984 400.862 233.984ZM390.284 208.81L388.972 207.662H412.096L410.866 208.81C410.866 206.569 410.374 204.737 409.39 203.316C408.406 201.84 407.149 200.747 405.618 200.036C404.142 199.271 402.584 198.888 400.944 198.888C399.304 198.888 397.664 199.271 396.024 200.036C394.384 200.747 393.018 201.84 391.924 203.316C390.831 204.737 390.284 206.569 390.284 208.81ZM454.39 233L453.98 225.292V211.926C453.98 209.138 453.68 206.815 453.078 204.956C452.532 203.043 451.602 201.594 450.29 200.61C449.033 199.571 447.338 199.052 445.206 199.052C443.238 199.052 441.516 199.462 440.04 200.282C438.564 201.102 437.307 202.387 436.268 204.136L428.232 201.184C429.107 199.38 430.255 197.713 431.676 196.182C433.152 194.597 434.984 193.339 437.17 192.41C439.412 191.481 442.09 191.016 445.206 191.016C449.197 191.016 452.532 191.809 455.21 193.394C457.889 194.925 459.857 197.139 461.114 200.036C462.426 202.933 463.082 206.432 463.082 210.532L462.836 233H454.39ZM442.582 233.984C437.662 233.984 433.836 232.891 431.102 230.704C428.424 228.517 427.084 225.429 427.084 221.438C427.084 217.174 428.506 213.921 431.348 211.68C434.246 209.439 438.264 208.318 443.402 208.318H454.39V215.37H446.354C442.692 215.37 440.122 215.889 438.646 216.928C437.17 217.912 436.432 219.333 436.432 221.192C436.432 222.777 437.061 224.035 438.318 224.964C439.63 225.839 441.434 226.276 443.73 226.276C445.808 226.276 447.612 225.811 449.142 224.882C450.673 223.953 451.848 222.723 452.668 221.192C453.543 219.661 453.98 217.939 453.98 216.026H456.686C456.686 221.602 455.566 226.003 453.324 229.228C451.083 232.399 447.502 233.984 442.582 233.984ZM480.09 211.188C480.09 206.76 480.938 203.125 482.632 200.282C484.327 197.439 486.514 195.335 489.192 193.968C491.926 192.547 494.768 191.836 497.72 191.836V200.61C495.206 200.61 492.828 200.965 490.586 201.676C488.4 202.332 486.623 203.425 485.256 204.956C483.89 206.487 483.206 208.509 483.206 211.024L480.09 211.188ZM474.022 233V192H483.206V233H474.022ZM524.639 233.984C520.43 233.984 516.713 233.082 513.487 231.278C510.262 229.419 507.72 226.877 505.861 223.652C504.057 220.427 503.155 216.709 503.155 212.5C503.155 208.291 504.057 204.573 505.861 201.348C507.72 198.123 510.235 195.608 513.405 193.804C516.631 191.945 520.321 191.016 524.475 191.016C528.521 191.016 532.183 192 535.463 193.968C538.743 195.881 541.176 198.642 542.761 202.25L534.233 205.53C533.359 203.726 532.019 202.277 530.215 201.184C528.411 200.091 526.361 199.544 524.065 199.544C521.824 199.544 519.829 200.118 518.079 201.266C516.33 202.359 514.963 203.89 513.979 205.858C512.995 207.771 512.503 209.985 512.503 212.5C512.503 215.015 512.995 217.256 513.979 219.224C515.018 221.137 516.412 222.668 518.161 223.816C519.965 224.909 521.988 225.456 524.229 225.456C526.525 225.456 528.575 224.882 530.379 223.734C532.183 222.531 533.523 220.919 534.397 218.896L542.925 222.176C541.34 225.893 538.907 228.791 535.627 230.868C532.402 232.945 528.739 233.984 524.639 233.984ZM551.777 233V175.6H560.961V233H551.777ZM579.575 233V212.008H588.759V233H579.575ZM579.575 212.008C579.575 208.728 579.192 206.213 578.427 204.464C577.662 202.66 576.596 201.403 575.229 200.692C573.917 199.981 572.386 199.626 570.637 199.626C567.521 199.571 565.116 200.583 563.421 202.66C561.781 204.737 560.961 207.717 560.961 211.598H557.435C557.435 207.279 558.064 203.589 559.321 200.528C560.633 197.412 562.464 195.061 564.815 193.476C567.166 191.836 569.954 191.016 573.179 191.016C576.404 191.016 579.192 191.672 581.543 192.984C583.894 194.296 585.67 196.346 586.873 199.134C588.13 201.867 588.759 205.448 588.759 209.876V212.008H579.575Z" fill="#234363"/>
<path d="M99.6429 56.6906C98.7 57.2708 95.8286 60.107 81.3429 74.6965C74.85 81.25 68.1 88.0183 66.3429 89.7372C56.1214 99.8145 52.5 103.489 52.5 103.811C52.5 104.004 52.7357 104.52 53.0143 104.971C53.6143 105.895 71.6786 123.987 72.3643 124.331C72.9857 124.653 73.3286 124.352 80.0357 117.477C83.1 114.361 93.3214 104.026 102.75 94.5503C112.179 85.0531 120.064 76.9526 120.279 76.5444C120.664 75.8138 120.664 75.7709 120.279 75.1477C119.679 74.2023 103.157 57.5071 102.129 56.841C101.079 56.132 100.629 56.089 99.6429 56.6906Z" fill="#234363"/>
<path d="M50.1214 56.9484C49.2428 57.55 49.5 57.3136 39.15 67.6058C34.5857 72.161 30.8571 75.9427 30.8571 76.0501C30.8571 76.2435 34.4785 80.1541 36.9214 82.5821C37.8857 83.5275 41.2285 86.9009 44.3357 90.038C47.4643 93.1965 50.1857 95.8179 50.4 95.9039C50.6143 95.9683 51.0857 95.8394 51.45 95.6031C52.5214 94.9155 70.5 76.8021 70.65 76.265C70.8 75.6204 70.2857 74.9113 67.5214 72.0106C63.7928 68.0785 52.6285 56.8624 52.2428 56.6476C51.6428 56.3253 50.8714 56.4327 50.1214 56.9484Z" fill="#234363"/>
<path d="M146.786 58.5384C145.907 59.4624 140.4 65.0919 134.571 71.0437C128.743 77.0171 119.764 86.1274 114.621 91.2843C109.457 96.4411 105.193 100.867 105.129 101.104C105 101.447 106.671 103.231 114.471 111.031C119.7 116.273 124.179 120.678 124.436 120.85C125.164 121.344 125.721 120.915 129.857 116.725C131.914 114.64 133.714 112.814 133.843 112.685C133.993 112.535 139.479 107.056 146.057 100.481C159.193 87.3737 167.936 78.4352 168.793 77.2319C169.157 76.7162 169.307 76.308 169.221 75.9642C169.05 75.3411 151.436 57.7219 150.493 57.2277C149.121 56.5187 148.586 56.7121 146.786 58.5384Z" fill="#234363"/>
<path d="M177.429 85.6118C175.971 86.3423 158.143 104.198 158.143 104.95C158.143 105.229 160.35 107.614 164.421 111.718C167.85 115.199 172.2 119.625 174.064 121.516C176.786 124.331 177.557 124.997 178.029 124.997C178.5 125.019 179.721 123.88 185.336 118.186C196.95 106.389 198.15 104.95 197.293 103.725C196.8 103.016 180.257 86.2994 179.486 85.7192C178.714 85.1606 178.414 85.1391 177.429 85.6118Z" fill="#234363"/>
<path d="M22.0714 85.8267C21.7714 86.0201 21.4285 86.2994 21.3 86.4283C20.1214 87.5241 12.45 95.1519 8.52854 99.127L3.64282 104.09V105.122V106.132L10.5428 113.158C26.3571 129.23 53.3143 156.131 54.15 156.69L55.05 157.27L56.1 156.497C56.6785 156.088 58.1785 154.649 59.4428 153.317C60.7071 151.984 64.7785 147.837 68.5071 144.099C74.1214 138.448 75.2357 137.223 75.1285 136.858C74.9785 136.428 25.65 86.8795 24.3857 85.9126C23.7 85.3754 22.7785 85.3325 22.0714 85.8267Z" fill="#234363"/>
<path d="M148.714 106.819C148.307 107.099 146.507 108.86 144.707 110.73C142.929 112.621 138.9 116.746 135.771 119.948C131.829 123.966 130.071 125.899 130.071 126.222C130.071 126.566 136.436 133.076 153.664 150.351C173.593 170.334 177.343 173.987 177.836 173.987C178.329 173.987 179.636 172.762 185.7 166.638C189.686 162.599 193.843 158.409 194.914 157.356C196.007 156.282 197.057 155.1 197.25 154.735C197.593 154.112 197.593 154.047 197.25 153.338C196.586 152.027 150.686 106.454 149.936 106.346C149.679 106.325 149.121 106.518 148.714 106.819Z" fill="#234363"/>
<path d="M90.0643 116.488C83.1428 123.45 80.1428 126.609 80.1428 126.931C80.1428 127.253 86.8071 134.064 102.9 150.158C115.414 162.685 125.85 173.041 126.086 173.17C126.429 173.364 127.714 172.16 136.521 163.308C143.7 156.11 146.571 153.102 146.571 152.758C146.571 152.414 140.293 146.011 123.836 129.574C111.343 117.068 100.993 106.776 100.864 106.69C100.714 106.604 100.479 106.518 100.307 106.518C100.136 106.518 95.5285 111.009 90.0643 116.488Z" fill="#234363"/>
<path d="M21.3214 135.397C20.55 135.74 4.07142 151.984 3.42856 153.059C3.10713 153.574 2.99999 153.983 3.10713 154.369C3.19285 154.735 12.2357 163.974 28.7786 180.583C48.3 200.179 54.45 206.217 54.8357 206.217C55.1143 206.217 55.7357 205.916 56.2286 205.529C57.5357 204.541 74.3357 187.523 74.4857 187.029C74.5928 186.707 69.5357 181.529 48.8786 160.858C21.1286 133.076 22.9071 134.709 21.3214 135.397Z" fill="#234363"/>
<path d="M72.5357 149.32C67.35 154.563 62.5714 159.333 61.9071 159.956C60.6 161.138 59.7857 162.105 59.7857 162.405C59.7857 162.771 78.3214 181.249 79.05 181.615C79.65 181.915 79.8643 181.937 80.4 181.701C81.0857 181.421 83.8714 178.692 94.9928 167.412C100.693 161.632 102.214 159.977 102.214 159.548C102.214 159.097 100.264 157.012 92.7428 149.406C84.4714 141.048 83.1643 139.823 82.6071 139.823C82.05 139.801 80.8286 140.962 72.5357 149.32Z" fill="#234363"/>
<path d="M150.707 158.387C150.386 158.667 148.221 160.815 145.929 163.157C139.843 169.346 135.086 174.116 133.436 175.663C132.364 176.694 132 177.167 132 177.597C132 178.069 133.2 179.359 138.707 184.752C142.371 188.383 151.521 197.472 158.979 204.949C176.379 222.375 177.493 223.406 178.757 223.406C179.55 223.406 179.936 223.041 189.664 213.05L197.143 205.379V204.434C197.143 203.789 196.993 203.295 196.607 202.758C195.557 201.339 152.079 157.872 151.693 157.872C151.5 157.872 151.05 158.108 150.707 158.387Z" fill="#234363"/>
<path d="M102.107 168.787C94.9072 175.899 39.5143 231.679 38.1857 233.118C36.8357 234.601 36.7929 235.052 37.8429 236.535C38.7 237.759 51.6214 250.931 53.7429 252.757C55.2643 254.068 55.95 254.218 57.0857 253.488C57.45 253.251 73.3071 237.48 92.3143 218.4C118.05 192.573 126.857 183.613 126.857 183.248C126.857 182.904 126.279 182.216 124.993 181.013C123.986 180.046 121.157 177.253 118.736 174.803C113.036 169.066 107.593 163.888 107.271 163.888C107.143 163.888 104.807 166.101 102.107 168.787Z" fill="#234363"/>
<path d="M22.2857 186.041C20.8071 187.244 4.71426 203.574 4.49997 204.068C4.28569 204.562 4.32854 204.799 4.64997 205.422C5.14283 206.389 21.3214 222.805 22.2214 223.277C22.7571 223.535 23.0357 223.578 23.4857 223.406C24.5143 222.998 42 205.164 42 204.52C42 203.939 41.3785 203.23 37.1785 198.911C35.1643 196.849 32.85 194.442 32.0143 193.561C31.2 192.68 29.1 190.532 27.3643 188.77C24.5785 185.998 24.0857 185.59 23.5071 185.59C23.1214 185.611 22.5857 185.805 22.2857 186.041Z" fill="#234363"/>
<path d="M131.893 187.975C131.657 188.061 120.921 198.718 108.064 211.653C86.7428 233.075 84.6428 235.246 84.6428 235.869C84.6428 236.492 85.5214 237.459 93.4714 245.452C103.157 255.207 103.05 255.121 104.421 254.111C104.807 253.853 110.55 248.116 117.214 241.369C123.879 234.644 134.271 224.18 140.314 218.142C146.593 211.825 151.286 206.969 151.286 206.754C151.286 206.346 133.243 188.125 132.643 187.91C132.471 187.846 132.129 187.867 131.893 187.975Z" fill="#234363"/>
<path d="M150.943 216.531C149.743 217.304 132.643 234.988 132.643 235.46C132.643 236.191 135.214 239.027 142.221 246.01C149.55 253.359 150.171 253.918 150.857 253.918C151.543 253.918 151.971 253.552 156.107 249.341C158.593 246.848 162.579 242.766 164.957 240.316C169.157 235.976 169.286 235.826 169.286 234.966C169.286 234.021 168.686 233.14 166.714 231.142C166.179 230.604 162.814 227.145 159.214 223.449C155.614 219.754 152.421 216.574 152.121 216.423C151.629 216.165 151.5 216.165 150.943 216.531Z" fill="#234363"/>
</svg>
