<?xml version="1.0" encoding="UTF-8"?>
<svg width="998px" height="104px" viewBox="0 0 998 104" version="1.1" xmlns="http://www.w3.org/2000/svg" xmlns:xlink="http://www.w3.org/1999/xlink">
    <title>Nottingham Biomedical Research Centre_logo_outlined_RGB_REV</title>
    <desc>Created with Sketch.</desc>
    <g id="Nottingham-Biomedical-Research-Centre_logo_outlined_RGB_REV" stroke="none" stroke-width="1" fill="none" fill-rule="evenodd">
        <g id="Group-3">
            <path class="nihr-color-black" d="M458.932384,1.17081851 L458.932384,42.5266904 L454.985765,42.5266904 C454.373665,42.5266904 453.864769,42.4270463 453.455516,42.2241993 C453.042705,42.024911 452.651246,41.6868327 452.266904,41.2099644 L430.676157,13.6405694 C430.790036,14.8967972 430.846975,16.0604982 430.846975,17.1281139 L430.846975,42.5266904 L424.071174,42.5266904 L424.071174,1.17081851 L428.099644,1.17081851 C428.427046,1.17081851 428.708185,1.1886121 428.946619,1.21352313 C429.185053,1.24199288 429.395018,1.3024911 429.576512,1.38434164 C429.754448,1.47330961 429.932384,1.59786477 430.103203,1.75800712 C430.27758,1.92170819 430.469751,2.13523132 430.676157,2.39857651 L452.355872,30.0854093 C452.295374,29.4163701 452.24911,28.7615658 452.213523,28.1103203 C452.170819,27.4626335 452.153025,26.8647687 452.153025,26.3096085 L452.153025,1.17081851 L458.932384,1.17081851" id="Fill-112"></path>
            <path class="nihr-color-black" d="M478.263345,37.5231317 C480.704626,37.5231317 482.512456,36.7010676 483.686833,35.0604982 C484.857651,33.4199288 485.44484,31.0177936 485.44484,27.8540925 C485.44484,24.6903915 484.857651,22.2775801 483.686833,20.6192171 C482.512456,18.9608541 480.704626,18.1281139 478.263345,18.1281139 C475.786477,18.1281139 473.950178,18.9644128 472.758007,20.633452 C471.565836,22.2989324 470.97153,24.7081851 470.97153,27.8540925 C470.97153,31 471.565836,33.3950178 472.758007,35.0462633 C473.950178,36.6939502 475.786477,37.5231317 478.263345,37.5231317 Z M478.263345,12.7259786 C480.437722,12.7259786 482.41637,13.0782918 484.199288,13.7864769 C485.982206,14.4911032 487.505338,15.4911032 488.772242,16.7864769 C490.042705,18.0854093 491.017794,19.6654804 491.708185,21.5338078 C492.391459,23.4021352 492.736655,25.4911032 492.736655,27.797153 C492.736655,30.1245552 492.391459,32.2206406 491.708185,34.088968 C491.017794,35.9572954 490.042705,37.5480427 488.772242,38.8647687 C487.505338,40.1814947 485.982206,41.1921708 484.199288,41.8967972 C482.41637,42.6014235 480.437722,42.9537367 478.263345,42.9537367 C476.071174,42.9537367 474.078292,42.6014235 472.284698,41.8967972 C470.498221,41.1921708 468.964413,40.1814947 467.697509,38.8647687 C466.430605,37.5480427 465.448399,35.9572954 464.75089,34.088968 C464.05694,32.2206406 463.708185,30.1245552 463.708185,27.797153 C463.708185,25.4911032 464.05694,23.4021352 464.75089,21.5338078 C465.448399,19.6654804 466.430605,18.0854093 467.697509,16.7864769 C468.964413,15.4911032 470.498221,14.4911032 472.284698,13.7864769 C474.078292,13.0782918 476.071174,12.7259786 478.263345,12.7259786 L478.263345,12.7259786 Z" id="Fill-113" ></path>
            <path class="nihr-color-black" d="M545.786477,4.51601423 C545.786477,5.12811388 545.66548,5.70462633 545.412811,6.24911032 C545.16726,6.79359431 544.836299,7.2633452 544.427046,7.66192171 C544.017794,8.06405694 543.533808,8.38434164 542.97153,8.6227758 C542.409253,8.86120996 541.811388,8.97864769 541.181495,8.97864769 C540.572954,8.97864769 540,8.86120996 539.466192,8.6227758 C538.932384,8.38434164 538.466192,8.06405694 538.064057,7.66192171 C537.66548,7.2633452 537.345196,6.79359431 537.106762,6.24911032 C536.868327,5.70462633 536.75089,5.12811388 536.75089,4.51601423 C536.75089,3.886121 536.868327,3.3024911 537.106762,2.75800712 C537.345196,2.21708185 537.66548,1.74021352 538.064057,1.33096085 C538.466192,0.918149466 538.932384,0.597864769 539.466192,0.355871886 C540,0.117437722 540.572954,-1.42108547e-14 541.181495,-1.42108547e-14 C541.811388,-1.42108547e-14 542.409253,0.117437722 542.97153,0.355871886 C543.533808,0.597864769 544.017794,0.918149466 544.427046,1.33096085 C544.836299,1.74021352 545.16726,2.21708185 545.412811,2.75800712 C545.66548,3.3024911 545.786477,3.886121 545.786477,4.51601423 Z M544.669039,42.5266904 L537.608541,42.5266904 L537.608541,18.4733096 L524.565836,18.4733096 L524.565836,34.3736655 C524.565836,35.2918149 524.793594,36.0071174 525.252669,36.519573 C525.708185,37.0355872 526.330961,37.2918149 527.113879,37.2918149 C527.530249,37.2918149 527.893238,37.2419929 528.19573,37.1352313 C528.501779,37.0284698 528.768683,36.9217082 528.985765,36.8042705 C529.206406,36.6903915 529.398577,36.5836299 529.569395,36.4768683 C529.743772,36.3701068 529.914591,36.3202847 530.088968,36.3202847 C530.295374,36.3202847 530.466192,36.3701068 530.601423,36.4768683 C530.733096,36.5836299 530.875445,36.7402135 531.02847,36.9466192 L533.145907,40.3807829 C532.117438,41.2384342 530.935943,41.886121 529.601423,42.3238434 C528.266904,42.7615658 526.882562,42.9822064 525.451957,42.9822064 C522.896797,42.9822064 520.932384,42.2633452 519.562278,40.8220641 C518.188612,39.3843416 517.505338,37.3950178 517.505338,34.86121 L517.505338,18.4733096 L505.637011,18.4733096 L505.637011,34.3736655 C505.637011,35.2918149 505.857651,36.0071174 506.30605,36.519573 C506.754448,37.0355872 507.370107,37.2918149 508.153025,37.2918149 C508.590747,37.2918149 508.957295,37.2419929 509.252669,37.1352313 C509.548043,37.0284698 509.80427,36.9217082 510.024911,36.8042705 C510.241993,36.6903915 510.437722,36.5836299 510.6121,36.4768683 C510.782918,36.3701068 510.953737,36.3202847 511.128114,36.3202847 C511.33452,36.3202847 511.505338,36.3701068 511.640569,36.4768683 C511.772242,36.5836299 511.914591,36.7402135 512.067616,36.9466192 L514.185053,40.3807829 C513.156584,41.2384342 511.975089,41.886121 510.640569,42.3238434 C509.30605,42.7615658 507.921708,42.9822064 506.494662,42.9822064 C503.935943,42.9822064 501.978648,42.2633452 500.6121,40.8220641 C499.252669,39.3843416 498.569395,37.3950178 498.569395,34.86121 L498.569395,18.4733096 L495.565836,18.4733096 C495.185053,18.4733096 494.86121,18.3487544 494.594306,18.1032028 C494.327402,17.8540925 494.19573,17.4839858 494.19573,16.9857651 L494.19573,14.1850534 L498.914591,13.3807829 L500.402135,5.40213523 C500.494662,5.02491103 500.676157,4.72953737 500.94306,4.51601423 C501.209964,4.30960854 501.55516,4.20284698 501.97153,4.20284698 L505.637011,4.20284698 L505.637011,13.4412811 L517.843416,13.4412811 L519.362989,5.40213523 C519.455516,5.02491103 519.633452,4.72953737 519.88968,4.51601423 C520.149466,4.30960854 520.494662,4.20284698 520.932384,4.20284698 L524.565836,4.20284698 L524.565836,13.4412811 L544.669039,13.4412811 L544.669039,42.5266904 L544.669039,42.5266904 Z" id="Fill-114" ></path>
            <path class="nihr-color-black" d="M557.654804,16.7864769 C558.245552,16.1957295 558.871886,15.6476868 559.52669,15.1423488 C560.185053,14.6370107 560.882562,14.2099644 561.615658,13.8540925 C562.348754,13.5053381 563.135231,13.2241993 563.975089,13.024911 C564.811388,12.8256228 565.725979,12.7259786 566.72242,12.7259786 C568.323843,12.7259786 569.740214,12.9964413 570.982206,13.5409253 C572.220641,14.0854093 573.256228,14.8469751 574.085409,15.8291815 C574.911032,16.8113879 575.540925,17.9822064 575.97153,19.3451957 C576.398577,20.7081851 576.615658,22.2099644 576.615658,23.8505338 L576.615658,42.5266904 L569.551601,42.5266904 L569.551601,23.8505338 C569.551601,22.0604982 569.13879,20.6690391 568.323843,19.6903915 C567.501779,18.7081851 566.252669,18.2170819 564.576512,18.2170819 C563.352313,18.2170819 562.209964,18.4946619 561.142349,19.0462633 C560.074733,19.5978648 559.064057,20.3523132 558.113879,21.3060498 L558.113879,42.5266904 L551.046263,42.5266904 L551.046263,13.1850534 L555.366548,13.1850534 C556.281139,13.1850534 556.882562,13.6120996 557.16726,14.4697509 L557.654804,16.7864769" id="Fill-115" ></path>
            <path class="nihr-color-black" d="M593.174377,27.1423488 C594.049822,27.1423488 594.811388,27.0177936 595.462633,26.7829181 C596.106762,26.544484 596.647687,26.2135231 597.078292,25.797153 C597.505338,25.3772242 597.83274,24.8718861 598.049822,24.2811388 C598.270463,23.6903915 598.377224,23.0391459 598.377224,22.3345196 C598.377224,20.886121 597.94306,19.7402135 597.078292,18.886121 C596.209964,18.0391459 594.911032,17.6156584 593.174377,17.6156584 C591.437722,17.6156584 590.13879,18.0391459 589.270463,18.886121 C588.402135,19.7402135 587.967972,20.886121 587.967972,22.3345196 C587.967972,23.0213523 588.078292,23.658363 588.298932,24.2491103 C588.519573,24.8398577 588.839858,25.3523132 589.270463,25.7829181 C589.701068,26.2099644 590.241993,26.544484 590.900356,26.7829181 C591.558719,27.0177936 592.316726,27.1423488 593.174377,27.1423488 Z M601.153025,43.8398577 C601.153025,43.2704626 600.982206,42.8007117 600.637011,42.4377224 C600.295374,42.0782918 599.825623,41.797153 599.234875,41.594306 C598.644128,41.3950178 597.953737,41.2455516 597.163701,41.1530249 C596.373665,41.0569395 595.533808,40.9857651 594.644128,40.9395018 C593.758007,40.8896797 592.843416,40.8469751 591.900356,40.8078292 C590.957295,40.772242 590.035587,40.6939502 589.13879,40.5800712 C588.359431,41.0177936 587.725979,41.5373665 587.238434,42.1281139 C586.754448,42.7188612 586.508897,43.4021352 586.508897,44.1850534 C586.508897,44.6975089 586.637011,45.1814947 586.896797,45.6298932 C587.153025,46.0747331 587.562278,46.4626335 588.124555,46.7864769 C588.686833,47.1103203 589.419929,47.3629893 590.313167,47.544484 C591.209964,47.7259786 592.30605,47.8149466 593.601423,47.8149466 C594.918149,47.8149466 596.053381,47.7153025 597.003559,47.5160142 C597.960854,47.316726 598.747331,47.0391459 599.362989,46.6868327 C599.982206,46.3345196 600.437722,45.9145907 600.72242,45.4270463 C601.007117,44.9430605 601.153025,44.4128114 601.153025,43.8398577 Z M608.188612,14.1850534 L608.188612,16.8149466 C608.188612,17.6548043 607.679715,18.1672598 606.672598,18.3594306 L604.042705,18.8469751 C604.441281,19.8576512 604.640569,20.9608541 604.640569,22.1637011 C604.640569,23.6120996 604.352313,24.9252669 603.768683,26.0960854 C603.188612,27.2704626 602.380783,28.2633452 601.352313,29.0854093 C600.323843,29.9039146 599.106762,30.5373665 597.708185,30.9857651 C596.30605,31.4341637 594.793594,31.658363 593.174377,31.658363 C592.601423,31.658363 592.049822,31.6263345 591.512456,31.5729537 C590.982206,31.5160142 590.459075,31.4412811 589.94306,31.341637 C589.024911,31.8967972 588.569395,32.5160142 588.569395,33.202847 C588.569395,33.7935943 588.839858,34.227758 589.384342,34.5017794 C589.928826,34.7793594 590.647687,34.975089 591.544484,35.088968 C592.437722,35.202847 593.459075,35.2775801 594.604982,35.3060498 C595.747331,35.3309609 596.921708,35.3950178 598.120996,35.4875445 C599.323843,35.5871886 600.494662,35.7544484 601.637011,35.9893238 C602.782918,36.227758 603.80427,36.6049822 604.697509,37.1174377 C605.594306,37.6370107 606.316726,38.3345196 606.857651,39.2206406 C607.402135,40.1067616 607.672598,41.2455516 607.672598,42.6405694 C607.672598,43.9359431 607.355872,45.1957295 606.715302,46.4163701 C606.074733,47.633452 605.149466,48.7224199 603.94306,49.6761566 C602.729537,50.6263345 601.241993,51.3950178 599.480427,51.975089 C597.718861,52.5587189 595.708185,52.8469751 593.459075,52.8469751 C591.245552,52.8469751 589.320285,52.6370107 587.683274,52.2064057 C586.042705,51.7758007 584.679715,51.202847 583.594306,50.4911032 C582.505338,49.7758007 581.697509,48.9501779 581.160142,48.0177936 C580.629893,47.0818505 580.362989,46.1103203 580.362989,45.0996441 C580.362989,43.7259786 580.775801,42.5800712 581.604982,41.6548043 C582.437722,40.7295374 583.572954,39.9893238 585.021352,39.4377224 C584.238434,39.0355872 583.622776,38.5017794 583.163701,37.8362989 C582.708185,37.1672598 582.476868,36.2918149 582.476868,35.202847 C582.476868,34.7651246 582.558719,34.3131673 582.72242,33.8434164 C582.882562,33.3807829 583.120996,32.9181495 583.437722,32.4590747 C583.75089,32 584.145907,31.569395 584.622776,31.1601423 C585.099644,30.747331 585.661922,30.3807829 586.309609,30.0569395 C584.825623,29.252669 583.654804,28.1886121 582.807829,26.8540925 C581.957295,25.519573 581.533808,23.9537367 581.533808,22.1637011 C581.533808,20.7153025 581.825623,19.405694 582.405694,18.2313167 C582.989324,17.0604982 583.797153,16.0569395 584.836299,15.227758 C585.875445,14.3985765 587.106762,13.7651246 588.52669,13.3274021 C589.946619,12.8896797 591.498221,12.6690391 593.174377,12.6690391 C594.434164,12.6690391 595.615658,12.797153 596.718861,13.0569395 C597.825623,13.3131673 598.836299,13.6868327 599.75089,14.1850534 L608.188612,14.1850534 L608.188612,14.1850534 Z" id="Fill-116" ></path>
            <path class="nihr-color-black" d="M618.854093,16.3309609 C619.996441,15.2633452 621.259786,14.3950178 622.633452,13.7259786 C624.003559,13.0604982 625.6121,12.7259786 627.462633,12.7259786 C629.064057,12.7259786 630.487544,12.9964413 631.72242,13.5409253 C632.964413,14.0854093 634,14.8469751 634.825623,15.8291815 C635.658363,16.8113879 636.284698,17.9822064 636.715302,19.3451957 C637.145907,20.7081851 637.359431,22.2099644 637.359431,23.8505338 L637.359431,42.5266904 L630.295374,42.5266904 L630.295374,23.8505338 C630.295374,22.0604982 629.886121,20.6690391 629.064057,19.6903915 C628.245552,18.7081851 626.996441,18.2170819 625.316726,18.2170819 C624.099644,18.2170819 622.953737,18.4946619 621.88968,19.0462633 C620.818505,19.5978648 619.811388,20.3523132 618.854093,21.3060498 L618.854093,42.5266904 L611.793594,42.5266904 L611.793594,0.024911032 L618.854093,0.024911032 L618.854093,16.3309609" id="Fill-117"></path>
            <path class="nihr-color-black" d="M658.690391,29.9964413 C656.651246,30.0960854 654.939502,30.2740214 653.544484,30.5302491 C652.153025,30.7864769 651.039146,31.113879 650.199288,31.5160142 C649.359431,31.9145907 648.758007,32.3807829 648.398577,32.9181495 C648.035587,33.4483986 647.854093,34.0320285 647.854093,34.6619217 C647.854093,35.9003559 648.220641,36.7900356 648.953737,37.3202847 C649.686833,37.8540925 650.647687,38.1209964 651.829181,38.1209964 C653.27758,38.1209964 654.530249,37.8576512 655.590747,37.3345196 C656.647687,36.8078292 657.683274,36.0142349 658.690391,34.9466192 L658.690391,29.9964413 Z M642.508897,17.2704626 C645.882562,14.1850534 649.939502,12.6370107 654.686833,12.6370107 C656.405694,12.6370107 657.939502,12.9217082 659.291815,13.4839858 C660.647687,14.0462633 661.790036,14.8291815 662.725979,15.8291815 C663.658363,16.8291815 664.370107,18.024911 664.857651,19.4199288 C665.345196,20.8078292 665.587189,22.3345196 665.587189,23.9928826 L665.587189,42.5266904 L662.380783,42.5266904 C661.715302,42.5266904 661.199288,42.4270463 660.839858,42.2241993 C660.47331,42.024911 660.188612,41.6192171 659.982206,41.0106762 L659.352313,38.8932384 C658.608541,39.5622776 657.882562,40.1459075 657.177936,40.6548043 C656.469751,41.1565836 655.736655,41.5800712 654.975089,41.9252669 C654.213523,42.2704626 653.398577,42.5302491 652.530249,42.7117438 C651.661922,42.8896797 650.704626,42.9822064 649.654804,42.9822064 C648.41637,42.9822064 647.270463,42.8149466 646.220641,42.480427 C645.177936,42.1459075 644.270463,41.6476868 643.508897,40.9786477 C642.743772,40.3131673 642.153025,39.4839858 641.736655,38.4911032 C641.316726,37.5017794 641.103203,36.3487544 641.103203,35.0320285 C641.103203,34.2882562 641.227758,33.5480427 641.47331,32.8149466 C641.725979,32.0818505 642.128114,31.3807829 642.690391,30.7153025 C643.252669,30.0462633 643.985765,29.4163701 644.882562,28.8256228 C645.775801,28.2348754 646.875445,27.7224199 648.181495,27.2846975 C649.487544,26.8469751 651.007117,26.4875445 652.743772,26.2099644 C654.480427,25.9359431 656.459075,25.7686833 658.690391,25.7081851 L658.690391,23.9928826 C658.690391,22.0284698 658.274021,20.5765125 657.434164,19.6298932 C656.594306,18.6903915 655.384342,18.2170819 653.800712,18.2170819 C652.658363,18.2170819 651.708185,18.3487544 650.957295,18.6156584 C650.206406,18.8825623 649.540925,19.1850534 648.967972,19.5160142 C648.398577,19.8505338 647.875445,20.1530249 647.409253,20.4199288 C646.94306,20.6868327 646.423488,20.8185053 645.854093,20.8185053 C645.355872,20.8185053 644.935943,20.6903915 644.590747,20.4341637 C644.252669,20.1779359 643.975089,19.8754448 643.765125,19.5338078 L642.508897,17.2704626 L642.508897,17.2704626 Z" id="Fill-118" ></path>
            <path class="nihr-color-black" d="M671.362989,42.5266904 L671.362989,13.1850534 L675.679715,13.1850534 C676.597865,13.1850534 677.19573,13.6120996 677.483986,14.4697509 L677.939502,16.6405694 C678.455516,16.0711744 678.989324,15.5480427 679.55516,15.0711744 C680.117438,14.594306 680.718861,14.1850534 681.359431,13.8398577 C681.996441,13.4982206 682.683274,13.2241993 683.41637,13.024911 C684.149466,12.8256228 684.953737,12.7259786 685.83274,12.7259786 C687.683274,12.7259786 689.202847,13.2241993 690.395018,14.227758 C691.587189,15.227758 692.476868,16.5587189 693.071174,18.2170819 C693.523132,17.2419929 694.099644,16.4092527 694.782918,15.7153025 C695.469751,15.0177936 696.220641,14.4519573 697.042705,14.0106762 C697.86121,13.5729537 698.733096,13.2491103 699.658363,13.0427046 C700.58363,12.8291815 701.516014,12.7259786 702.448399,12.7259786 C704.067616,12.7259786 705.508897,12.9715302 706.765125,13.4697509 C708.024911,13.9644128 709.085409,14.6903915 709.94306,15.6405694 C710.800712,16.5978648 711.451957,17.7580071 711.900356,19.1316726 C712.348754,20.5017794 712.572954,22.0782918 712.572954,23.8505338 L712.572954,42.5266904 L705.508897,42.5266904 L705.508897,23.8505338 C705.508897,21.9822064 705.096085,20.5765125 704.27758,19.6298932 C703.455516,18.6903915 702.259786,18.2170819 700.676157,18.2170819 C699.950178,18.2170819 699.281139,18.341637 698.658363,18.5871886 C698.039146,18.8362989 697.498221,19.1921708 697.02847,19.6619217 C696.562278,20.1281139 696.192171,20.7153025 695.925267,21.4199288 C695.661922,22.1245552 695.52669,22.9359431 695.52669,23.8505338 L695.52669,42.5266904 L688.434164,42.5266904 L688.434164,23.8505338 C688.434164,21.886121 688.039146,20.4590747 687.24911,19.5622776 C686.455516,18.6654804 685.298932,18.2170819 683.772242,18.2170819 C682.743772,18.2170819 681.786477,18.4697509 680.900356,18.975089 C680.014235,19.480427 679.188612,20.1708185 678.423488,21.0498221 L678.423488,42.5266904 L671.362989,42.5266904" id="Fill-119" ></path>
            <path class="nihr-color-black" d="M748.035587,36.519573 C749.462633,36.519573 750.66548,36.3487544 751.637011,36.0071174 C752.608541,35.6619217 753.3879,35.202847 753.967972,34.633452 C754.548043,34.0604982 754.967972,33.3914591 755.224199,32.6298932 C755.483986,31.8683274 755.6121,31.0569395 755.6121,30.1992883 C755.6121,29.3024911 755.469751,28.4946619 755.185053,27.7829181 C754.900356,27.0676157 754.451957,26.455516 753.839858,25.9537367 C753.227758,25.4483986 752.441281,25.0640569 751.480427,24.7935943 C750.516014,24.5266904 749.359431,24.3950178 748.003559,24.3950178 L740.252669,24.3950178 L740.252669,36.519573 L748.035587,36.519573 Z M740.252669,7.12099644 L740.252669,19.0747331 L746.373665,19.0747331 C749.003559,19.0747331 750.992883,18.5978648 752.338078,17.6441281 C753.683274,16.6903915 754.352313,15.1743772 754.352313,13.0960854 C754.352313,10.9430605 753.743772,9.40569395 752.52669,8.4911032 C751.302491,7.58007117 749.398577,7.12099644 746.80427,7.12099644 L740.252669,7.12099644 Z M746.80427,1.17081851 C749.512456,1.17081851 751.825623,1.43060498 753.75089,1.94661922 C755.676157,2.45907473 757.256228,3.19217082 758.483986,4.14590747 C759.715302,5.09964413 760.615658,6.25266904 761.188612,7.60498221 C761.761566,8.96085409 762.046263,10.4839858 762.046263,12.1850534 C762.046263,13.1530249 761.903915,14.0854093 761.615658,14.9715302 C761.330961,15.8576512 760.88968,16.6868327 760.288256,17.4590747 C759.686833,18.2313167 758.921708,18.9323843 758,19.5622776 C757.074733,20.1921708 755.97153,20.7224199 754.697509,21.1637011 C760.380783,22.4377224 763.217082,25.5088968 763.217082,30.3701068 C763.217082,32.1245552 762.886121,33.7437722 762.217082,35.2313167 C761.551601,36.7188612 760.576512,38 759.302491,39.0782918 C758.021352,40.1565836 756.451957,41 754.58363,41.6085409 C752.711744,42.2206406 750.580071,42.5266904 748.177936,42.5266904 L732.562278,42.5266904 L732.562278,1.17081851 L746.80427,1.17081851 L746.80427,1.17081851 Z" id="Fill-120" ></path>
            <path class="nihr-color-black" d="M767.967972,42.5266904 L775.060498,42.5266904 L775.060498,13.1850534 L767.967972,13.1850534 L767.967972,42.5266904 Z M776.032028,4.62989324 C776.032028,5.24199288 775.907473,5.8113879 775.661922,6.34875445 C775.412811,6.88256228 775.081851,7.34875445 774.672598,7.74733096 C774.263345,8.14946619 773.782918,8.46975089 773.231317,8.70818505 C772.679715,8.94661922 772.088968,9.06761566 771.455516,9.06761566 C770.846975,9.06761566 770.270463,8.94661922 769.729537,8.70818505 C769.181495,8.46975089 768.708185,8.14946619 768.309609,7.74733096 C767.911032,7.34875445 767.590747,6.88256228 767.355872,6.34875445 C767.113879,5.8113879 766.996441,5.24199288 766.996441,4.62989324 C766.996441,4.00355872 767.113879,3.41281139 767.355872,2.85765125 C767.590747,2.30604982 767.911032,1.82918149 768.309609,1.43060498 C768.708185,1.02846975 769.181495,0.711743772 769.729537,0.46975089 C770.270463,0.231316726 770.846975,0.113879004 771.455516,0.113879004 C772.088968,0.113879004 772.679715,0.231316726 773.231317,0.46975089 C773.782918,0.711743772 774.263345,1.02846975 774.672598,1.43060498 C775.081851,1.82918149 775.412811,2.30604982 775.661922,2.85765125 C775.907473,3.41281139 776.032028,4.00355872 776.032028,4.62989324 L776.032028,4.62989324 Z" id="Fill-121" ></path>
            <path class="nihr-color-black" d="M794.391459,37.5231317 C796.83274,37.5231317 798.640569,36.7010676 799.814947,35.0604982 C800.985765,33.4199288 801.572954,31.0177936 801.572954,27.8540925 C801.572954,24.6903915 800.985765,22.2775801 799.814947,20.6192171 C798.640569,18.9608541 796.83274,18.1281139 794.391459,18.1281139 C791.914591,18.1281139 790.078292,18.9644128 788.886121,20.633452 C787.69395,22.2989324 787.099644,24.7081851 787.099644,27.8540925 C787.099644,31 787.69395,33.3950178 788.886121,35.0462633 C790.078292,36.6939502 791.914591,37.5231317 794.391459,37.5231317 Z M794.391459,12.7259786 C796.569395,12.7259786 798.544484,13.0782918 800.327402,13.7864769 C802.11032,14.4911032 803.633452,15.4911032 804.900356,16.7864769 C806.170819,18.0854093 807.145907,19.6654804 807.836299,21.5338078 C808.519573,23.4021352 808.864769,25.4911032 808.864769,27.797153 C808.864769,30.1245552 808.519573,32.2206406 807.836299,34.088968 C807.145907,35.9572954 806.170819,37.5480427 804.900356,38.8647687 C803.633452,40.1814947 802.11032,41.1921708 800.327402,41.8967972 C798.544484,42.6014235 796.569395,42.9537367 794.391459,42.9537367 C792.199288,42.9537367 790.206406,42.6014235 788.41637,41.8967972 C786.626335,41.1921708 785.092527,40.1814947 783.825623,38.8647687 C782.558719,37.5480427 781.576512,35.9572954 780.879004,34.088968 C780.185053,32.2206406 779.836299,30.1245552 779.836299,27.797153 C779.836299,25.4911032 780.185053,23.4021352 780.879004,21.5338078 C781.576512,19.6654804 782.558719,18.0854093 783.825623,16.7864769 C785.092527,15.4911032 786.626335,14.4911032 788.41637,13.7864769 C790.206406,13.0782918 792.199288,12.7259786 794.391459,12.7259786 L794.391459,12.7259786 Z" id="Fill-122" ></path>
            <path class="nihr-color-black" d="M813.409253,42.5266904 L813.409253,13.1850534 L817.729537,13.1850534 C818.644128,13.1850534 819.245552,13.6120996 819.530249,14.4697509 L819.989324,16.6405694 C820.501779,16.0711744 821.039146,15.5480427 821.604982,15.0711744 C822.16726,14.594306 822.765125,14.1850534 823.405694,13.8398577 C824.042705,13.4982206 824.733096,13.2241993 825.466192,13.024911 C826.199288,12.8256228 827.003559,12.7259786 827.879004,12.7259786 C829.729537,12.7259786 831.252669,13.2241993 832.44484,14.227758 C833.633452,15.227758 834.52669,16.5587189 835.117438,18.2170819 C835.572954,17.2419929 836.145907,16.4092527 836.83274,15.7153025 C837.516014,15.0177936 838.270463,14.4519573 839.092527,14.0106762 C839.911032,13.5729537 840.782918,13.2491103 841.708185,13.0427046 C842.633452,12.8291815 843.562278,12.7259786 844.494662,12.7259786 C846.113879,12.7259786 847.558719,12.9715302 848.814947,13.4697509 C850.074733,13.9644128 851.131673,14.6903915 851.989324,15.6405694 C852.846975,16.5978648 853.501779,17.7580071 853.950178,19.1316726 C854.398577,20.5017794 854.619217,22.0782918 854.619217,23.8505338 L854.619217,42.5266904 L847.558719,42.5266904 L847.558719,23.8505338 C847.558719,21.9822064 847.145907,20.5765125 846.327402,19.6298932 C845.505338,18.6903915 844.30605,18.2170819 842.72242,18.2170819 C841.996441,18.2170819 841.327402,18.341637 840.708185,18.5871886 C840.088968,18.8362989 839.544484,19.1921708 839.078292,19.6619217 C838.608541,20.1281139 838.241993,20.7153025 837.975089,21.4199288 C837.708185,22.1245552 837.576512,22.9359431 837.576512,23.8505338 L837.576512,42.5266904 L830.483986,42.5266904 L830.483986,23.8505338 C830.483986,21.886121 830.085409,20.4590747 829.295374,19.5622776 C828.505338,18.6654804 827.345196,18.2170819 825.822064,18.2170819 C824.790036,18.2170819 823.836299,18.4697509 822.950178,18.975089 C822.060498,19.480427 821.234875,20.1708185 820.47331,21.0498221 L820.47331,42.5266904 L813.409253,42.5266904" id="Fill-123" ></path>
            <path class="nihr-color-black" d="M879.359431,24.480427 C879.359431,23.5658363 879.231317,22.7046263 878.975089,21.8896797 C878.715302,21.0818505 878.327402,20.3701068 877.814947,19.7580071 C877.298932,19.1530249 876.644128,18.6690391 875.857651,18.316726 C875.064057,17.9644128 874.142349,17.7900356 873.092527,17.7900356 C871.053381,17.7900356 869.448399,18.3701068 868.27758,19.5338078 C867.103203,20.6939502 866.355872,22.3451957 866.032028,24.480427 L879.359431,24.480427 Z M865.88968,28.7402135 C866.003559,30.2491103 866.266904,31.5480427 866.690391,32.6476868 C867.11032,33.7402135 867.661922,34.6476868 868.345196,35.3594306 C869.035587,36.0747331 869.846975,36.6120996 870.793594,36.9608541 C871.740214,37.316726 872.782918,37.4911032 873.925267,37.4911032 C875.067616,37.4911032 876.053381,37.3594306 876.886121,37.0925267 C877.711744,36.8220641 878.437722,36.5266904 879.05694,36.2064057 C879.676157,35.8825623 880.220641,35.5871886 880.686833,35.316726 C881.156584,35.0498221 881.608541,34.9181495 882.046263,34.9181495 C882.637011,34.9181495 883.074733,35.13879 883.362989,35.5765125 L885.391459,38.1494662 C884.6121,39.0640569 883.736655,39.8327402 882.761566,40.4519573 C881.790036,41.0711744 880.775801,41.5658363 879.715302,41.9395018 C878.658363,42.3096085 877.580071,42.5729537 876.487544,42.7259786 C875.3879,42.8790036 874.323843,42.9537367 873.295374,42.9537367 C871.256228,42.9537367 869.359431,42.6156584 867.601423,41.9395018 C865.850534,41.2597865 864.327402,40.2597865 863.02847,38.9359431 C861.733096,37.6120996 860.711744,35.9715302 859.967972,34.0177936 C859.224199,32.0604982 858.850534,29.8007117 858.850534,27.2241993 C858.850534,25.2241993 859.177936,23.3380783 859.825623,21.5765125 C860.476868,19.8149466 861.402135,18.2775801 862.6121,16.9715302 C863.825623,15.6654804 865.302491,14.633452 867.046263,13.8683274 C868.790036,13.1067616 870.758007,12.7259786 872.950178,12.7259786 C874.800712,12.7259786 876.505338,13.0213523 878.071174,13.6120996 C879.633452,14.202847 880.978648,15.0676157 882.106762,16.1992883 C883.227758,17.3345196 884.11032,18.7259786 884.75089,20.3736655 C885.391459,22.024911 885.704626,23.9074733 885.704626,26.024911 C885.704626,27.0925267 885.594306,27.8113879 885.366548,28.1850534 C885.135231,28.5551601 884.697509,28.7402135 884.049822,28.7402135 L865.88968,28.7402135 L865.88968,28.7402135 Z" id="Fill-124" ></path>
            <path class="nihr-color-black" d="M908.55516,20.6761566 C907.758007,19.7046263 906.886121,19.0142349 905.939502,18.6156584 C904.996441,18.2170819 903.982206,18.0142349 902.893238,18.0142349 C901.829181,18.0142349 900.864769,18.2170819 900.007117,18.6156584 C899.149466,19.0142349 898.41637,19.6227758 897.80427,20.4341637 C897.192171,21.2419929 896.725979,22.2704626 896.402135,23.5231317 C896.078292,24.772242 895.918149,26.2455516 895.918149,27.9395018 C895.918149,29.658363 896.05694,31.1103203 896.330961,32.3024911 C896.608541,33.4946619 897.003559,34.4661922 897.519573,35.2170819 C898.032028,35.9715302 898.661922,36.5124555 899.405694,36.8469751 C900.149466,37.1814947 900.978648,37.3487544 901.893238,37.3487544 C903.359431,37.3487544 904.6121,37.0462633 905.640569,36.4341637 C906.669039,35.8220641 907.640569,34.9572954 908.55516,33.8327402 L908.55516,20.6761566 Z M915.622776,0.024911032 L915.622776,42.5266904 L911.302491,42.5266904 C910.366548,42.5266904 909.775801,42.0960854 909.530249,41.2384342 L908.928826,38.4092527 C907.747331,39.7615658 906.3879,40.8576512 904.854093,41.6939502 C903.320285,42.5338078 901.533808,42.9537367 899.491103,42.9537367 C897.88968,42.9537367 896.419929,42.6192171 895.085409,41.9537367 C893.75089,41.2846975 892.604982,40.3202847 891.640569,39.0498221 C890.679715,37.7829181 889.935943,36.2135231 889.409253,34.3451957 C888.886121,32.480427 888.626335,30.341637 888.626335,27.9395018 C888.626335,25.7686833 888.921708,23.747331 889.512456,21.8754448 C890.103203,20.0106762 890.950178,18.3879004 892.05694,17.0142349 C893.160142,15.6405694 894.487544,14.569395 896.032028,13.8007117 C897.572954,13.024911 899.309609,12.6370107 901.238434,12.6370107 C902.875445,12.6370107 904.27758,12.8967972 905.437722,13.4128114 C906.601423,13.9288256 907.640569,14.6227758 908.55516,15.4982206 L908.55516,0.024911032 L915.622776,0.024911032 L915.622776,0.024911032 Z" id="Fill-125" ></path>
            <path class="nihr-color-black" d="M921.97153,42.5266904 L929.060498,42.5266904 L929.060498,13.1850534 L921.97153,13.1850534 L921.97153,42.5266904 Z M930.032028,4.62989324 C930.032028,5.24199288 929.907473,5.8113879 929.661922,6.34875445 C929.41637,6.88256228 929.085409,7.34875445 928.676157,7.74733096 C928.263345,8.14946619 927.786477,8.46975089 927.231317,8.70818505 C926.679715,8.94661922 926.088968,9.06761566 925.455516,9.06761566 C924.846975,9.06761566 924.270463,8.94661922 923.729537,8.70818505 C923.185053,8.46975089 922.711744,8.14946619 922.309609,7.74733096 C921.911032,7.34875445 921.590747,6.88256228 921.355872,6.34875445 C921.117438,5.8113879 920.996441,5.24199288 920.996441,4.62989324 C920.996441,4.00355872 921.117438,3.41281139 921.355872,2.85765125 C921.590747,2.30604982 921.911032,1.82918149 922.309609,1.43060498 C922.711744,1.02846975 923.185053,0.711743772 923.729537,0.46975089 C924.270463,0.231316726 924.846975,0.113879004 925.455516,0.113879004 C926.088968,0.113879004 926.679715,0.231316726 927.231317,0.46975089 C927.786477,0.711743772 928.263345,1.02846975 928.676157,1.43060498 C929.085409,1.82918149 929.41637,2.30604982 929.661922,2.85765125 C929.907473,3.41281139 930.032028,4.00355872 930.032028,4.62989324 L930.032028,4.62989324 Z" id="Fill-126" ></path>
            <path class="nihr-color-black" d="M956.430605,19.3879004 C956.220641,19.6548043 956.014235,19.8683274 955.818505,20.0177936 C955.615658,20.1708185 955.323843,20.2455516 954.94306,20.2455516 C954.580071,20.2455516 954.227758,20.13879 953.886121,19.9181495 C953.540925,19.7010676 953.131673,19.4483986 952.654804,19.1743772 C952.177936,18.8967972 951.6121,18.6512456 950.953737,18.430605 C950.295374,18.2135231 949.480427,18.1032028 948.508897,18.1032028 C947.266904,18.1032028 946.185053,18.3274021 945.24911,18.772242 C944.313167,19.2206406 943.537367,19.8683274 942.918149,20.7046263 C942.298932,21.5409253 941.836299,22.5622776 941.530249,23.7508897 C941.224199,24.9395018 941.074733,26.2882562 941.074733,27.797153 C941.074733,29.3629893 941.241993,30.7508897 941.576512,31.9715302 C941.903915,33.1921708 942.3879,34.2170819 943.017794,35.0462633 C943.647687,35.8754448 944.409253,36.5053381 945.302491,36.9359431 C946.199288,37.3629893 947.213523,37.5765125 948.338078,37.5765125 C949.459075,37.5765125 950.370107,37.4377224 951.071174,37.1637011 C951.765125,36.886121 952.352313,36.5836299 952.829181,36.2455516 C953.302491,35.9145907 953.718861,35.6120996 954.071174,35.3309609 C954.423488,35.0569395 954.818505,34.9181495 955.256228,34.9181495 C955.829181,34.9181495 956.259786,35.13879 956.544484,35.5765125 L958.576512,38.1494662 C957.793594,39.0640569 956.946619,39.8327402 956.02847,40.4519573 C955.113879,41.0711744 954.16726,41.5658363 953.185053,41.9395018 C952.202847,42.3096085 951.192171,42.5729537 950.153025,42.7259786 C949.113879,42.8790036 948.081851,42.9537367 947.049822,42.9537367 C945.238434,42.9537367 943.530249,42.6156584 941.928826,41.9395018 C940.330961,41.2597865 938.925267,40.2740214 937.729537,38.9786477 C936.52669,37.683274 935.576512,36.0960854 934.882562,34.2170819 C934.185053,32.341637 933.839858,30.1992883 933.839858,27.797153 C933.839858,25.6441281 934.149466,23.6441281 934.765125,21.8078292 C935.384342,19.9644128 936.295374,18.3736655 937.498221,17.0320285 C938.701068,15.6868327 940.185053,14.633452 941.960854,13.8683274 C943.733096,13.1067616 945.772242,12.7259786 948.081851,12.7259786 C950.270463,12.7259786 952.192171,13.0782918 953.843416,13.7864769 C955.491103,14.4911032 956.975089,15.4982206 958.288256,16.8149466 L956.430605,19.3879004" id="Fill-127" ></path>
            <path class="nihr-color-black" d="M977.619217,29.9964413 C975.580071,30.0960854 973.868327,30.2740214 972.47331,30.5302491 C971.085409,30.7864769 969.967972,31.113879 969.128114,31.5160142 C968.288256,31.9145907 967.686833,32.3807829 967.327402,32.9181495 C966.964413,33.4483986 966.786477,34.0320285 966.786477,34.6619217 C966.786477,35.9003559 967.149466,36.7900356 967.882562,37.3202847 C968.615658,37.8540925 969.576512,38.1209964 970.758007,38.1209964 C972.206406,38.1209964 973.462633,37.8576512 974.519573,37.3345196 C975.576512,36.8078292 976.6121,36.0142349 977.619217,34.9466192 L977.619217,29.9964413 Z M961.437722,17.2704626 C964.811388,14.1850534 968.871886,12.6370107 973.615658,12.6370107 C975.33452,12.6370107 976.871886,12.9217082 978.220641,13.4839858 C979.576512,14.0462633 980.72242,14.8291815 981.654804,15.8291815 C982.587189,16.8291815 983.298932,18.024911 983.786477,19.4199288 C984.274021,20.8078292 984.516014,22.3345196 984.516014,23.9928826 L984.516014,42.5266904 L981.313167,42.5266904 C980.644128,42.5266904 980.131673,42.4270463 979.768683,42.2241993 C979.402135,42.024911 979.117438,41.6192171 978.911032,41.0106762 L978.281139,38.8932384 C977.537367,39.5622776 976.811388,40.1459075 976.106762,40.6548043 C975.398577,41.1565836 974.66548,41.5800712 973.907473,41.9252669 C973.142349,42.2704626 972.327402,42.5302491 971.459075,42.7117438 C970.590747,42.8896797 969.633452,42.9822064 968.58363,42.9822064 C967.345196,42.9822064 966.202847,42.8149466 965.153025,42.480427 C964.106762,42.1459075 963.199288,41.6476868 962.437722,40.9786477 C961.672598,40.3131673 961.081851,39.4839858 960.66548,38.4911032 C960.245552,37.5017794 960.032028,36.3487544 960.032028,35.0320285 C960.032028,34.2882562 960.156584,33.5480427 960.405694,32.8149466 C960.654804,32.0818505 961.05694,31.3807829 961.619217,30.7153025 C962.185053,30.0462633 962.914591,29.4163701 963.811388,28.8256228 C964.708185,28.2348754 965.80427,27.7224199 967.11032,27.2846975 C968.419929,26.8469751 969.935943,26.4875445 971.676157,26.2099644 C973.409253,25.9359431 975.391459,25.7686833 977.619217,25.7081851 L977.619217,23.9928826 C977.619217,22.0284698 977.202847,20.5765125 976.362989,19.6298932 C975.52669,18.6903915 974.313167,18.2170819 972.729537,18.2170819 C971.587189,18.2170819 970.640569,18.3487544 969.886121,18.6156584 C969.135231,18.8825623 968.469751,19.1850534 967.896797,19.5160142 C967.327402,19.8505338 966.80427,20.1530249 966.341637,20.4199288 C965.871886,20.6868327 965.352313,20.8185053 964.782918,20.8185053 C964.284698,20.8185053 963.864769,20.6903915 963.523132,20.4341637 C963.181495,20.1779359 962.903915,19.8754448 962.69395,19.5338078 L961.437722,17.2704626 L961.437722,17.2704626 Z" id="Fill-128" ></path>
            <polygon id="Fill-129" class="nihr-color-black" points="990.373665 42.5266904 997.441281 42.5266904 997.441281 0.024911032 990.373665 0.024911032"></polygon>
            <path class="nihr-color-black" d="M436.565836,81.4199288 C438.017794,81.4199288 439.281139,81.2384342 440.359431,80.8718861 C441.434164,80.5124555 442.323843,80.0106762 443.017794,79.3701068 C443.711744,78.7330961 444.234875,77.975089 444.572954,77.0996441 C444.918149,76.2241993 445.092527,75.2597865 445.092527,74.2099644 C445.092527,72.1103203 444.402135,70.5017794 443.017794,69.3772242 C441.633452,68.252669 439.523132,67.6903915 436.683274,67.6903915 L431.765125,67.6903915 L431.765125,81.4199288 L436.565836,81.4199288 Z M456.359431,103.092527 L449.409253,103.092527 C448.096085,103.092527 447.13879,102.580071 446.548043,101.551601 L437.857651,88.3096085 C437.530249,87.8113879 437.170819,87.4626335 436.782918,87.2491103 C436.391459,87.0427046 435.811388,86.9359431 435.053381,86.9359431 L431.765125,86.9359431 L431.765125,103.092527 L424.071174,103.092527 L424.071174,61.7402135 L436.683274,61.7402135 C439.487544,61.7402135 441.88968,62.0320285 443.903915,62.6120996 C445.914591,63.1921708 447.562278,64.0106762 448.854093,65.0604982 C450.13879,66.1067616 451.085409,67.3594306 451.69395,68.8220641 C452.30605,70.2775801 452.6121,71.886121 452.6121,73.6370107 C452.6121,75.0320285 452.409253,76.3451957 451.996441,77.5836299 C451.587189,78.8256228 450.996441,79.9466192 450.224199,80.9608541 C449.448399,81.9715302 448.498221,82.8576512 447.366548,83.6192171 C446.227758,84.3843416 444.939502,84.9857651 443.491103,85.4234875 C443.982206,85.7081851 444.441281,86.0427046 444.86121,86.4377224 C445.281139,86.8256228 445.661922,87.2882562 446.007117,87.8220641 L456.359431,103.092527 L456.359431,103.092527 Z" id="Fill-130" ></path>
            <path class="nihr-color-black" d="M475.86121,85.0498221 C475.86121,84.1316726 475.733096,83.2704626 475.476868,82.4626335 C475.220641,81.6512456 474.83274,80.9430605 474.320285,80.3309609 C473.80427,79.7188612 473.153025,79.2384342 472.359431,78.886121 C471.565836,78.5338078 470.651246,78.3558719 469.601423,78.3558719 C467.558719,78.3558719 465.953737,78.9359431 464.779359,80.0996441 C463.608541,81.2669039 462.86121,82.9145907 462.533808,85.0498221 L475.86121,85.0498221 Z M462.391459,89.3096085 C462.505338,90.8149466 462.775801,92.1174377 463.19573,93.2135231 C463.6121,94.3131673 464.163701,95.2170819 464.854093,95.9323843 C465.537367,96.6476868 466.352313,97.1779359 467.298932,97.5338078 C468.241993,97.886121 469.284698,98.0604982 470.430605,98.0604982 C471.572954,98.0604982 472.562278,97.9288256 473.3879,97.6619217 C474.217082,97.3950178 474.94306,97.0996441 475.562278,96.7758007 C476.181495,96.4483986 476.725979,96.1530249 477.192171,95.8896797 C477.658363,95.6227758 478.11032,95.4875445 478.551601,95.4875445 C479.142349,95.4875445 479.580071,95.7046263 479.864769,96.1459075 L481.896797,98.7188612 C481.113879,99.6370107 480.238434,100.402135 479.263345,101.021352 C478.295374,101.640569 477.27758,102.13879 476.220641,102.508897 C475.163701,102.882562 474.085409,103.142349 472.989324,103.295374 C471.893238,103.448399 470.829181,103.523132 469.800712,103.523132 C467.758007,103.523132 465.864769,103.185053 464.11032,102.508897 C462.352313,101.83274 460.829181,100.83274 459.530249,99.5053381 C458.234875,98.1814947 457.217082,96.544484 456.47331,94.5871886 C455.729537,92.633452 455.359431,90.366548 455.359431,87.797153 C455.359431,85.7935943 455.679715,83.911032 456.330961,82.1459075 C456.978648,80.3843416 457.907473,78.8469751 459.117438,77.544484 C460.327402,76.2384342 461.807829,75.202847 463.551601,74.4412811 C465.295374,73.6761566 467.263345,73.2953737 469.459075,73.2953737 C471.30605,73.2953737 473.014235,73.5907473 474.576512,74.1814947 C476.13879,74.772242 477.480427,75.6370107 478.608541,76.7686833 C479.733096,77.9039146 480.6121,79.2953737 481.252669,80.9466192 C481.893238,82.594306 482.213523,84.4768683 482.213523,86.594306 C482.213523,87.658363 482.096085,88.3807829 481.868327,88.7508897 C481.637011,89.1245552 481.199288,89.3096085 480.55516,89.3096085 L462.391459,89.3096085 L462.391459,89.3096085 Z" id="Fill-131" ></path>
            <path class="nihr-color-black" d="M504.548043,79.4733096 C504.355872,79.7793594 504.156584,79.9928826 503.946619,80.113879 C503.733096,80.2419929 503.469751,80.3024911 503.142349,80.3024911 C502.80427,80.3024911 502.434164,80.2064057 502.046263,80.0142349 C501.651246,79.8256228 501.199288,79.6120996 500.686833,79.3701068 C500.170819,79.1352313 499.58363,78.9181495 498.928826,78.7295374 C498.266904,78.5373665 497.491103,78.4448399 496.597865,78.4448399 C495.202847,78.4448399 494.11032,78.7402135 493.323843,79.3309609 C492.530249,79.9217082 492.135231,80.6903915 492.135231,81.6441281 C492.135231,82.2740214 492.338078,82.8042705 492.747331,83.2313167 C493.160142,83.6619217 493.701068,84.0391459 494.377224,84.3629893 C495.05694,84.6903915 495.825623,84.9786477 496.683274,85.2348754 C497.537367,85.4911032 498.409253,85.772242 499.298932,86.0782918 C500.185053,86.3843416 501.05694,86.7330961 501.918149,87.1209964 C502.772242,87.5124555 503.540925,88.0071174 504.217082,88.6085409 C504.896797,89.2099644 505.437722,89.9288256 505.846975,90.772242 C506.256228,91.6085409 506.462633,92.6192171 506.462633,93.8007117 C506.462633,95.2135231 506.209964,96.5124555 505.704626,97.7046263 C505.199288,98.8967972 504.451957,99.9252669 503.459075,100.793594 C502.469751,101.661922 501.241993,102.338078 499.782918,102.822064 C498.327402,103.309609 496.644128,103.551601 494.736655,103.551601 C493.725979,103.551601 492.740214,103.462633 491.775801,103.281139 C490.814947,103.099644 489.88968,102.846975 489.003559,102.523132 C488.117438,102.19573 487.295374,101.818505 486.540925,101.380783 C485.790036,100.939502 485.128114,100.462633 484.55516,99.9501779 L486.188612,97.2633452 C486.395018,96.9359431 486.644128,96.6903915 486.928826,96.519573 C487.217082,96.3451957 487.576512,96.2597865 488.014235,96.2597865 C488.451957,96.2597865 488.871886,96.3843416 489.259786,96.6298932 C489.651246,96.8790036 490.103203,97.1494662 490.619217,97.4341637 C491.131673,97.7188612 491.736655,97.9857651 492.437722,98.2313167 C493.131673,98.4839858 494.010676,98.6049822 495.081851,98.6049822 C495.918149,98.6049822 496.637011,98.5017794 497.238434,98.3060498 C497.839858,98.1032028 498.33452,97.8434164 498.725979,97.519573 C499.117438,97.1921708 499.405694,96.8185053 499.58363,96.3914591 C499.765125,95.9608541 499.857651,95.5160142 499.857651,95.0604982 C499.857651,94.3701068 499.651246,93.8113879 499.241993,93.3701068 C498.829181,92.9323843 498.288256,92.5516014 497.6121,92.227758 C496.932384,91.9039146 496.160142,91.6120996 495.291815,91.3558719 C494.427046,91.0960854 493.540925,90.8149466 492.633452,90.5088968 C491.729537,90.2064057 490.839858,89.8505338 489.975089,89.4377224 C489.106762,89.0284698 488.33452,88.5088968 487.658363,87.8790036 C486.982206,87.2491103 486.437722,86.4768683 486.02847,85.5658363 C485.619217,84.6476868 485.412811,83.5409253 485.412811,82.2455516 C485.412811,81.0462633 485.651246,79.9003559 486.128114,78.8149466 C486.604982,77.7259786 487.30605,76.7793594 488.231317,75.9679715 C489.156584,75.1601423 490.309609,74.5088968 491.69395,74.0213523 C493.071174,73.5373665 494.672598,73.2953737 496.480427,73.2953737 C498.501779,73.2953737 500.341637,73.6298932 502,74.2989324 C503.661922,74.9644128 505.042705,75.8398577 506.145907,76.9288256 L504.548043,79.4733096" id="Fill-132" ></path>
            <path class="nihr-color-black" d="M529.825623,85.0498221 C529.825623,84.1316726 529.697509,83.2704626 529.441281,82.4626335 C529.185053,81.6512456 528.797153,80.9430605 528.284698,80.3309609 C527.768683,79.7188612 527.117438,79.2384342 526.323843,78.886121 C525.530249,78.5338078 524.615658,78.3558719 523.565836,78.3558719 C521.523132,78.3558719 519.918149,78.9359431 518.743772,80.0996441 C517.572954,81.2669039 516.825623,82.9145907 516.498221,85.0498221 L529.825623,85.0498221 Z M516.355872,89.3096085 C516.469751,90.8149466 516.740214,92.1174377 517.160142,93.2135231 C517.576512,94.3131673 518.128114,95.2170819 518.818505,95.9323843 C519.501779,96.6476868 520.320285,97.1779359 521.263345,97.5338078 C522.206406,97.886121 523.24911,98.0604982 524.395018,98.0604982 C525.537367,98.0604982 526.52669,97.9288256 527.352313,97.6619217 C528.185053,97.3950178 528.907473,97.0996441 529.52669,96.7758007 C530.145907,96.4483986 530.690391,96.1530249 531.156584,95.8896797 C531.622776,95.6227758 532.074733,95.4875445 532.516014,95.4875445 C533.106762,95.4875445 533.544484,95.7046263 533.829181,96.1459075 L535.86121,98.7188612 C535.078292,99.6370107 534.202847,100.402135 533.227758,101.021352 C532.259786,101.640569 531.241993,102.13879 530.185053,102.508897 C529.128114,102.882562 528.049822,103.142349 526.953737,103.295374 C525.857651,103.448399 524.793594,103.523132 523.765125,103.523132 C521.72242,103.523132 519.829181,103.185053 518.074733,102.508897 C516.320285,101.83274 514.793594,100.83274 513.498221,99.5053381 C512.199288,98.1814947 511.181495,96.544484 510.437722,94.5871886 C509.69395,92.633452 509.323843,90.366548 509.323843,87.797153 C509.323843,85.7935943 509.647687,83.911032 510.295374,82.1459075 C510.94306,80.3843416 511.875445,78.8469751 513.081851,77.544484 C514.291815,76.2384342 515.772242,75.202847 517.516014,74.4412811 C519.259786,73.6761566 521.227758,73.2953737 523.423488,73.2953737 C525.270463,73.2953737 526.978648,73.5907473 528.540925,74.1814947 C530.106762,74.772242 531.448399,75.6370107 532.572954,76.7686833 C533.697509,77.9039146 534.576512,79.2953737 535.217082,80.9466192 C535.857651,82.594306 536.177936,84.4768683 536.177936,86.594306 C536.177936,87.658363 536.060498,88.3807829 535.83274,88.7508897 C535.601423,89.1245552 535.163701,89.3096085 534.519573,89.3096085 L516.355872,89.3096085 L516.355872,89.3096085 Z" id="Fill-133" ></path>
            <path class="nihr-color-black" d="M556.11032,90.569395 C554.071174,90.6619217 552.355872,90.8398577 550.964413,91.0960854 C549.569395,91.3558719 548.455516,91.683274 547.615658,92.0854093 C546.775801,92.4839858 546.177936,92.9537367 545.814947,93.4839858 C545.451957,94.0213523 545.270463,94.6014235 545.270463,95.227758 C545.270463,96.4697509 545.640569,97.3558719 546.373665,97.8896797 C547.106762,98.4234875 548.064057,98.6903915 549.245552,98.6903915 C550.697509,98.6903915 551.950178,98.430605 553.007117,97.9039146 C554.064057,97.3807829 555.099644,96.5836299 556.11032,95.5160142 L556.11032,90.569395 Z M539.921708,77.8434164 C543.298932,74.7544484 547.359431,73.2099644 552.106762,73.2099644 C553.825623,73.2099644 555.355872,73.4911032 556.711744,74.0533808 C558.064057,74.6120996 559.206406,75.3950178 560.142349,76.3950178 C561.078292,77.3985765 561.786477,78.5978648 562.274021,79.9857651 C562.758007,81.3807829 563.003559,82.9074733 563.003559,84.5622776 L563.003559,103.092527 L559.797153,103.092527 C559.131673,103.092527 558.615658,102.992883 558.256228,102.793594 C557.893238,102.594306 557.604982,102.188612 557.395018,101.580071 L556.768683,99.4626335 C556.024911,100.128114 555.302491,100.715302 554.594306,101.220641 C553.88968,101.729537 553.153025,102.153025 552.391459,102.491103 C551.629893,102.836299 550.814947,103.099644 549.946619,103.281139 C549.081851,103.462633 548.120996,103.551601 547.071174,103.551601 C545.83274,103.551601 544.690391,103.384342 543.640569,103.053381 C542.590747,102.718861 541.686833,102.217082 540.925267,101.551601 C540.163701,100.882562 539.572954,100.053381 539.153025,99.0640569 C538.729537,98.0711744 538.523132,96.9181495 538.523132,95.6014235 C538.523132,94.8576512 538.647687,94.1209964 538.893238,93.3843416 C539.142349,92.6512456 539.548043,91.9537367 540.11032,91.2846975 C540.669039,90.6192171 541.398577,89.9893238 542.295374,89.3985765 C543.192171,88.8078292 544.295374,88.2882562 545.601423,87.8505338 C546.903915,87.4128114 548.427046,87.0569395 550.160142,86.7793594 C551.896797,86.5017794 553.879004,86.3345196 556.11032,86.2811388 L556.11032,84.5622776 C556.11032,82.6014235 555.690391,81.1423488 554.854093,80.202847 C554.010676,79.2562278 552.800712,78.7864769 551.220641,78.7864769 C550.078292,78.7864769 549.128114,78.9181495 548.373665,79.1886121 C547.619217,79.455516 546.960854,79.7544484 546.3879,80.088968 C545.814947,80.4199288 545.295374,80.7188612 544.825623,80.9857651 C544.359431,81.2562278 543.843416,81.3879004 543.270463,81.3879004 C542.772242,81.3879004 542.355872,81.2597865 542.010676,81 C541.669039,80.7437722 541.391459,80.4448399 541.181495,80.0996441 L539.921708,77.8434164 L539.921708,77.8434164 Z" id="Fill-134" ></path>
            <path class="nihr-color-black" d="M575.44484,78.8434164 C576.359431,77.088968 577.44484,75.7117438 578.704626,74.7117438 C579.960854,73.7117438 581.448399,73.2099644 583.163701,73.2099644 C584.519573,73.2099644 585.604982,73.5053381 586.427046,74.0960854 L585.967972,79.3843416 C585.868327,79.7295374 585.733096,79.9715302 585.55516,80.113879 C585.370107,80.2562278 585.124555,80.3309609 584.825623,80.3309609 C584.533808,80.3309609 584.11032,80.2811388 583.551601,80.1886121 C582.989324,80.0925267 582.441281,80.0462633 581.903915,80.0462633 C581.120996,80.0462633 580.427046,80.1601423 579.818505,80.3879004 C579.206406,80.6156584 578.658363,80.9466192 578.170819,81.3736655 C577.690391,81.8042705 577.259786,82.3202847 576.886121,82.9323843 C576.516014,83.5409253 576.16726,84.2419929 575.843416,85.0177936 L575.843416,103.092527 L568.779359,103.092527 L568.779359,73.7508897 L572.925267,73.7508897 C573.651246,73.7508897 574.153025,73.8790036 574.44484,74.13879 C574.729537,74.3950178 574.918149,74.8576512 575.014235,75.5231317 L575.44484,78.8434164" id="Fill-135" ></path>
            <path class="nihr-color-black" d="M609.44484,79.9572954 C609.234875,80.227758 609.02847,80.4341637 608.83274,80.5871886 C608.629893,80.7402135 608.338078,80.8185053 607.960854,80.8185053 C607.594306,80.8185053 607.241993,80.7046263 606.900356,80.4875445 C606.55516,80.2669039 606.145907,80.0213523 605.669039,79.7437722 C605.192171,79.4697509 604.626335,79.2170819 603.967972,79 C603.309609,78.7793594 602.494662,78.6725979 601.523132,78.6725979 C600.281139,78.6725979 599.199288,78.8967972 598.263345,79.3451957 C597.327402,79.7935943 596.551601,80.4341637 595.932384,81.2740214 C595.313167,82.113879 594.850534,83.1281139 594.544484,84.3202847 C594.238434,85.5124555 594.088968,86.86121 594.088968,88.366548 C594.088968,89.9288256 594.256228,91.3238434 594.590747,92.544484 C594.918149,93.7615658 595.402135,94.7864769 596.032028,95.6156584 C596.661922,96.4448399 597.427046,97.0747331 598.320285,97.5017794 C599.213523,97.9323843 600.227758,98.1494662 601.352313,98.1494662 C602.47331,98.1494662 603.384342,98.0106762 604.085409,97.7330961 C604.779359,97.455516 605.366548,97.1494662 605.843416,96.8185053 C606.320285,96.4839858 606.733096,96.1779359 607.085409,95.9039146 C607.437722,95.6263345 607.83274,95.4875445 608.270463,95.4875445 C608.846975,95.4875445 609.274021,95.7046263 609.558719,96.1459075 L611.590747,98.7188612 C610.807829,99.6370107 609.960854,100.402135 609.042705,101.021352 C608.128114,101.640569 607.181495,102.13879 606.199288,102.508897 C605.217082,102.882562 604.206406,103.142349 603.16726,103.295374 C602.128114,103.448399 601.096085,103.523132 600.064057,103.523132 C598.252669,103.523132 596.544484,103.185053 594.94306,102.508897 C593.345196,101.83274 591.94306,100.846975 590.743772,99.5480427 C589.540925,98.252669 588.590747,96.6654804 587.896797,94.7864769 C587.199288,92.9074733 586.854093,90.772242 586.854093,88.366548 C586.854093,86.2099644 587.163701,84.2170819 587.782918,82.3736655 C588.398577,80.5373665 589.309609,78.9430605 590.512456,77.5978648 C591.715302,76.252669 593.199288,75.202847 594.975089,74.4412811 C596.747331,73.6761566 598.786477,73.2953737 601.096085,73.2953737 C603.284698,73.2953737 605.206406,73.6476868 606.857651,74.3523132 C608.505338,75.0569395 609.989324,76.0711744 611.302491,77.3843416 L609.44484,79.9572954" id="Fill-136" ></path>
            <path class="nihr-color-black" d="M622.199288,76.8967972 C623.345196,75.8291815 624.601423,74.9644128 625.975089,74.2989324 C627.348754,73.6298932 628.960854,73.2953737 630.807829,73.2953737 C632.412811,73.2953737 633.829181,73.569395 635.071174,74.1103203 C636.30605,74.6512456 637.341637,75.4163701 638.174377,76.3950178 C639,77.3807829 639.629893,78.5516014 640.060498,79.9181495 C640.487544,81.2811388 640.704626,82.7793594 640.704626,84.4199288 L640.704626,103.092527 L633.637011,103.092527 L633.637011,84.4199288 C633.637011,82.6263345 633.227758,81.2419929 632.412811,80.2562278 C631.590747,79.2775801 630.341637,78.7864769 628.66548,78.7864769 C627.441281,78.7864769 626.298932,79.0604982 625.231317,79.6156584 C624.163701,80.1672598 623.153025,80.9217082 622.199288,81.8754448 L622.199288,103.092527 L615.135231,103.092527 L615.135231,60.5978648 L622.199288,60.5978648 L622.199288,76.8967972" id="Fill-137" ></path>
            <path class="nihr-color-black" d="M689.088968,93.341637 C689.512456,93.341637 689.882562,93.5053381 690.206406,93.8291815 L693.234875,97.1174377 C691.562278,99.1957295 689.498221,100.790036 687.046263,101.893238 C684.597865,103 681.654804,103.551601 678.224199,103.551601 C675.153025,103.551601 672.395018,103.02847 669.94306,101.978648 C667.494662,100.932384 665.402135,99.4733096 663.66548,97.6014235 C661.932384,95.7366548 660.601423,93.5053381 659.679715,90.9145907 C658.75089,88.3202847 658.288256,85.4875445 658.288256,82.4199288 C658.288256,79.3096085 658.786477,76.4661922 659.775801,73.8790036 C660.765125,71.2989324 662.163701,69.0711744 663.967972,67.202847 C665.768683,65.3345196 667.918149,63.8825623 670.41637,62.8434164 C672.911032,61.8042705 675.679715,61.2811388 678.708185,61.2811388 C681.72242,61.2811388 684.395018,61.7793594 686.729537,62.7686833 C689.067616,63.7651246 691.053381,65.0604982 692.69395,66.658363 L690.117438,70.2348754 C689.964413,70.4626335 689.772242,70.6619217 689.533808,70.8362989 C689.295374,71.0071174 688.964413,71.0925267 688.548043,71.0925267 C688.259786,71.0925267 687.964413,71.0142349 687.661922,70.8505338 C687.355872,70.6868327 687.021352,70.4875445 686.661922,70.2491103 C686.295374,70.0142349 685.879004,69.747331 685.402135,69.4626335 C684.921708,69.1779359 684.370107,68.9145907 683.740214,68.6797153 C683.113879,68.4377224 682.384342,68.2348754 681.55516,68.0782918 C680.725979,67.9145907 679.765125,67.8327402 678.683274,67.8327402 C676.83274,67.8327402 675.13879,68.1601423 673.604982,68.8220641 C672.067616,69.4768683 670.747331,70.430605 669.644128,71.6797153 C668.537367,72.9288256 667.679715,74.455516 667.071174,76.252669 C666.459075,78.0569395 666.153025,80.1103203 666.153025,82.4199288 C666.153025,84.7437722 666.483986,86.8113879 667.13879,88.6227758 C667.800712,90.4377224 668.690391,91.9572954 669.814947,93.1992883 C670.939502,94.4412811 672.266904,95.3879004 673.793594,96.0462633 C675.313167,96.7046263 676.953737,97.0320285 678.708185,97.0320285 C679.758007,97.0320285 680.708185,96.975089 681.55516,96.8576512 C682.402135,96.7437722 683.185053,96.5622776 683.900356,96.316726 C684.615658,96.0711744 685.291815,95.7508897 685.932384,95.3594306 C686.569395,94.9679715 687.202847,94.4839858 687.83274,93.9145907 C688.024911,93.7402135 688.220641,93.6049822 688.434164,93.4982206 C688.640569,93.3950178 688.86121,93.341637 689.088968,93.341637" id="Fill-138" ></path>
            <path class="nihr-color-black" d="M714.86121,85.0498221 C714.86121,84.1316726 714.729537,83.2704626 714.47331,82.4626335 C714.213523,81.6512456 713.829181,80.9430605 713.313167,80.3309609 C712.797153,79.7188612 712.145907,79.2384342 711.355872,78.886121 C710.565836,78.5338078 709.644128,78.3558719 708.594306,78.3558719 C706.55516,78.3558719 704.946619,78.9359431 703.775801,80.0996441 C702.601423,81.2669039 701.854093,82.9145907 701.530249,85.0498221 L714.86121,85.0498221 Z M701.3879,89.3096085 C701.505338,90.8149466 701.768683,92.1174377 702.188612,93.2135231 C702.608541,94.3131673 703.160142,95.2170819 703.846975,95.9323843 C704.533808,96.6476868 705.348754,97.1779359 706.291815,97.5338078 C707.238434,97.886121 708.281139,98.0604982 709.423488,98.0604982 C710.569395,98.0604982 711.55516,97.9288256 712.384342,97.6619217 C713.213523,97.3950178 713.939502,97.0996441 714.558719,96.7758007 C715.174377,96.4483986 715.72242,96.1530249 716.188612,95.8896797 C716.654804,95.6227758 717.106762,95.4875445 717.544484,95.4875445 C718.135231,95.4875445 718.576512,95.7046263 718.864769,96.1459075 L720.893238,98.7188612 C720.11032,99.6370107 719.234875,100.402135 718.263345,101.021352 C717.288256,101.640569 716.274021,102.13879 715.213523,102.508897 C714.156584,102.882562 713.081851,103.142349 711.985765,103.295374 C710.886121,103.448399 709.825623,103.523132 708.793594,103.523132 C706.754448,103.523132 704.857651,103.185053 703.103203,102.508897 C701.352313,101.83274 699.825623,100.83274 698.530249,99.5053381 C697.231317,98.1814947 696.209964,96.544484 695.466192,94.5871886 C694.72242,92.633452 694.352313,90.366548 694.352313,87.797153 C694.352313,85.7935943 694.679715,83.911032 695.323843,82.1459075 C695.975089,80.3843416 696.903915,78.8469751 698.113879,77.544484 C699.323843,76.2384342 700.800712,75.202847 702.548043,74.4412811 C704.291815,73.6761566 706.259786,73.2953737 708.451957,73.2953737 C710.298932,73.2953737 712.007117,73.5907473 713.569395,74.1814947 C715.135231,74.772242 716.480427,75.6370107 717.604982,76.7686833 C718.725979,77.9039146 719.6121,79.2953737 720.24911,80.9466192 C720.88968,82.594306 721.206406,84.4768683 721.206406,86.594306 C721.206406,87.658363 721.096085,88.3807829 720.864769,88.7508897 C720.637011,89.1245552 720.199288,89.3096085 719.548043,89.3096085 L701.3879,89.3096085 L701.3879,89.3096085 Z" id="Fill-139" ></path>
            <path class="nihr-color-black" d="M732.245552,77.3558719 C732.836299,76.7651246 733.462633,76.2170819 734.120996,75.7117438 C734.775801,75.2064057 735.476868,74.7758007 736.209964,74.4270463 C736.94306,74.0711744 737.725979,73.797153 738.569395,73.594306 C739.405694,73.3950178 740.320285,73.2953737 741.313167,73.2953737 C742.914591,73.2953737 744.33452,73.569395 745.572954,74.1103203 C746.811388,74.6512456 747.846975,75.4163701 748.676157,76.3950178 C749.505338,77.3807829 750.135231,78.5516014 750.565836,79.9181495 C750.992883,81.2811388 751.206406,82.7793594 751.206406,84.4199288 L751.206406,103.092527 L744.142349,103.092527 L744.142349,84.4199288 C744.142349,82.6263345 743.733096,81.2419929 742.914591,80.2562278 C742.096085,79.2775801 740.843416,78.7864769 739.170819,78.7864769 C737.946619,78.7864769 736.80427,79.0604982 735.736655,79.6156584 C734.669039,80.1672598 733.658363,80.9217082 732.704626,81.8754448 L732.704626,103.092527 L725.640569,103.092527 L725.640569,73.7508897 L729.960854,73.7508897 C730.875445,73.7508897 731.476868,74.1814947 731.761566,75.0427046 L732.245552,77.3558719" id="Fill-140" ></path>
            <path class="nihr-color-black" d="M766.423488,103.551601 C763.868327,103.551601 761.907473,102.83274 760.544484,101.395018 C759.185053,99.9537367 758.501779,97.9679715 758.501779,95.430605 L758.501779,79.0462633 L755.498221,79.0462633 C755.117438,79.0462633 754.793594,78.9181495 754.52669,78.6725979 C754.259786,78.4234875 754.128114,78.0498221 754.128114,77.5587189 L754.128114,74.7544484 L758.843416,73.9822064 L760.330961,65.975089 C760.427046,65.5907473 760.608541,65.2953737 760.875445,65.088968 C761.13879,64.8754448 761.483986,64.772242 761.903915,64.772242 L765.565836,64.772242 L765.565836,74.0106762 L773.402135,74.0106762 L773.402135,79.0462633 L765.565836,79.0462633 L765.565836,94.9430605 C765.565836,95.8576512 765.790036,96.5729537 766.238434,97.088968 C766.683274,97.6014235 767.298932,97.86121 768.081851,97.86121 C768.519573,97.86121 768.886121,97.8078292 769.181495,97.7046263 C769.476868,97.5978648 769.733096,97.4875445 769.953737,97.3736655 C770.174377,97.2633452 770.370107,97.1494662 770.540925,97.0462633 C770.711744,96.9430605 770.886121,96.8896797 771.05694,96.8896797 C771.263345,96.8896797 771.437722,96.9430605 771.569395,97.0462633 C771.704626,97.1494662 771.846975,97.3060498 772,97.519573 L774.117438,100.950178 C773.085409,101.807829 771.903915,102.459075 770.569395,102.896797 C769.234875,103.33452 767.854093,103.551601 766.423488,103.551601" id="Fill-141" ></path>
            <path class="nihr-color-black" d="M783.725979,78.8434164 C784.640569,77.088968 785.729537,75.7117438 786.985765,74.7117438 C788.245552,73.7117438 789.733096,73.2099644 791.44484,73.2099644 C792.800712,73.2099644 793.88968,73.5053381 794.708185,74.0960854 L794.24911,79.3843416 C794.153025,79.7295374 794.017794,79.9715302 793.836299,80.113879 C793.651246,80.2562278 793.409253,80.3309609 793.106762,80.3309609 C792.818505,80.3309609 792.395018,80.2811388 791.83274,80.1886121 C791.270463,80.0925267 790.72242,80.0462633 790.188612,80.0462633 C789.405694,80.0462633 788.711744,80.1601423 788.103203,80.3879004 C787.491103,80.6156584 786.939502,80.9466192 786.455516,81.3736655 C785.97153,81.8042705 785.540925,82.3202847 785.16726,82.9323843 C784.797153,83.5409253 784.448399,84.2419929 784.124555,85.0177936 L784.124555,103.092527 L777.060498,103.092527 L777.060498,73.7508897 L781.206406,73.7508897 C781.932384,73.7508897 782.437722,73.8790036 782.725979,74.13879 C783.010676,74.3950178 783.202847,74.8576512 783.295374,75.5231317 L783.725979,78.8434164" id="Fill-142" ></path>
            <path class="nihr-color-black" d="M815.6121,85.0498221 C815.6121,84.1316726 815.483986,83.2704626 815.227758,82.4626335 C814.964413,81.6512456 814.580071,80.9430605 814.067616,80.3309609 C813.551601,79.7188612 812.896797,79.2384342 812.11032,78.886121 C811.316726,78.5338078 810.395018,78.3558719 809.345196,78.3558719 C807.30605,78.3558719 805.701068,78.9359431 804.530249,80.0996441 C803.355872,81.2669039 802.608541,82.9145907 802.284698,85.0498221 L815.6121,85.0498221 Z M802.142349,89.3096085 C802.256228,90.8149466 802.519573,92.1174377 802.94306,93.2135231 C803.362989,94.3131673 803.914591,95.2170819 804.597865,95.9323843 C805.288256,96.6476868 806.099644,97.1779359 807.046263,97.5338078 C807.989324,97.886121 809.032028,98.0604982 810.177936,98.0604982 C811.320285,98.0604982 812.30605,97.9288256 813.13879,97.6619217 C813.964413,97.3950178 814.690391,97.0996441 815.309609,96.7758007 C815.928826,96.4483986 816.47331,96.1530249 816.939502,95.8896797 C817.409253,95.6227758 817.86121,95.4875445 818.298932,95.4875445 C818.88968,95.4875445 819.327402,95.7046263 819.615658,96.1459075 L821.644128,98.7188612 C820.864769,99.6370107 819.989324,100.402135 819.014235,101.021352 C818.042705,101.640569 817.02847,102.13879 815.967972,102.508897 C814.911032,102.882562 813.83274,103.142349 812.736655,103.295374 C811.640569,103.448399 810.576512,103.523132 809.548043,103.523132 C807.508897,103.523132 805.6121,103.185053 803.854093,102.508897 C802.103203,101.83274 800.576512,100.83274 799.281139,99.5053381 C797.985765,98.1814947 796.964413,96.544484 796.220641,94.5871886 C795.476868,92.633452 795.103203,90.366548 795.103203,87.797153 C795.103203,85.7935943 795.430605,83.911032 796.078292,82.1459075 C796.725979,80.3843416 797.654804,78.8469751 798.864769,77.544484 C800.078292,76.2384342 801.55516,75.202847 803.298932,74.4412811 C805.042705,73.6761566 807.010676,73.2953737 809.202847,73.2953737 C811.053381,73.2953737 812.758007,73.5907473 814.323843,74.1814947 C815.886121,74.772242 817.231317,75.6370107 818.359431,76.7686833 C819.480427,77.9039146 820.362989,79.2953737 821.003559,80.9466192 C821.640569,82.594306 821.957295,84.4768683 821.957295,86.594306 C821.957295,87.658363 821.846975,88.3807829 821.619217,88.7508897 C821.3879,89.1245552 820.950178,89.3096085 820.298932,89.3096085 L802.142349,89.3096085 L802.142349,89.3096085 Z" id="Fill-143" ></path>
            <polyline id="Fill-144" class="nihr-color-black" points="69.2419929 1.10320285 69.2419929 63.8967972 20.9217082 1.10320285 0 1.10320285 0 103.088968 22.3914591 103.088968 22.3914591 38.252669 72.3345196 103.088968 91.6298932 103.088968 91.6298932 1.10320285 69.2419929 1.10320285"></polyline>
            <polygon id="Fill-145" class="nihr-color-black" points="109.761566 103.088968 132.448399 103.088968 132.448399 1.10320285 109.761566 1.10320285"></polygon>
            <polyline id="Fill-146" class="nihr-color-black" points="215.106762 1.10320285 215.106762 42.1672598 173.266904 42.1672598 173.266904 1.10320285 150.580071 1.10320285 150.580071 103.088968 173.266904 103.088968 173.266904 63.8932384 215.106762 63.8932384 215.106762 103.088968 237.793594 103.088968 237.793594 1.10320285 215.106762 1.10320285"></polyline>
            <path class="nihr-color-black" d="M319.032028,60.1992883 C331.996441,57.4946619 341.601423,47.480427 341.601423,31.0355872 C341.601423,12.7117438 328.807829,1.65836299 312.807829,1.15302491 L312.807829,1.10320285 L255.925267,1.10320285 L255.925267,103.085409 L278.608541,103.085409 L278.608541,63.8932384 L295.405694,63.8932384 L319.569395,103.085409 L345.523132,103.085409 L319.032028,60.1992883 Z M307.384342,42.1352313 L306.238434,42.1672598 L278.651246,42.1672598 L278.651246,21.3558719 L306.238434,21.3558719 L307.384342,21.3914591 C312.298932,21.5338078 319.188612,23.4483986 319.188612,31.7615658 C319.188612,40.0747331 312.298932,41.9893238 307.384342,42.1352313 L307.384342,42.1352313 Z" id="Fill-147" ></path>
            <polygon id="Fill-148" fill="#DF6052" points="379.213523 103.074733 388.217082 103.074733 388.217082 1.10320285 379.213523 1.10320285"></polygon>
        </g>
    </g>
      <defs>
    <style>
      .nihr-color-black {
        fill: black
      }

      @media (prefers-color-scheme: dark) {
        .nihr-color-black {
          fill: white
        }

      }
    </style>
  </defs>
</svg>