<svg width="458" height="153" viewBox="0 0 458 153" fill="none" xmlns="http://www.w3.org/2000/svg">
<g clip-path="url(#clip0_67_60)">
<path class="relay-color-black" d="M137.168 121.72H137.808V123H119.76V121.72H120.4C120.997 121.72 121.552 121.464 122.064 120.952C122.576 120.44 123.003 119.843 123.344 119.16C123.771 118.477 124.069 117.752 124.24 116.984C124.411 116.131 124.496 115.363 124.496 114.68V46.456C124.496 45.8587 124.411 45.176 124.24 44.408C124.069 43.64 123.771 42.9147 123.344 42.232C123.003 41.5493 122.576 40.9947 122.064 40.568C121.552 40.056 120.997 39.8 120.4 39.8H119.76V38.52H142.032C150.565 38.52 157.136 40.184 161.744 43.512C166.437 46.84 168.784 51.7467 168.784 58.232C168.784 61.4747 168.229 64.3333 167.12 66.808C166.096 69.1973 164.688 71.288 162.896 73.08C161.104 74.7867 158.971 76.1947 156.496 77.304C154.107 78.328 151.547 79.096 148.816 79.608L158.032 93.688C160.251 97.1013 162.512 100.472 164.816 103.8C167.12 107.043 169.381 110.413 171.6 113.912C172.197 114.765 172.837 115.661 173.52 116.6C174.288 117.539 175.056 118.392 175.824 119.16C176.677 119.928 177.531 120.568 178.384 121.08C179.323 121.507 180.261 121.72 181.2 121.72V123H175.696C172.283 123 169.467 122.189 167.248 120.568C165.115 118.861 163.323 116.899 161.872 114.68C158.032 109.048 154.192 103.331 150.352 97.528C146.597 91.7253 142.843 86.008 139.088 80.376C138.149 80.2907 137.125 80.2053 136.016 80.12C134.992 79.9493 134.011 79.7787 133.072 79.608V114.68C133.072 115.363 133.157 116.131 133.328 116.984C133.499 117.752 133.755 118.477 134.096 119.16C134.523 119.843 134.949 120.44 135.376 120.952C135.888 121.464 136.485 121.72 137.168 121.72ZM133.072 42.872V75.384H133.712C134.395 75.4693 135.461 75.5547 136.912 75.64C138.448 75.64 140.325 75.64 142.544 75.64C144.336 75.64 146.213 75.384 148.176 74.872C150.224 74.2747 152.101 73.336 153.808 72.056C155.6 70.6907 157.051 68.9413 158.16 66.808C159.355 64.6747 159.952 61.9867 159.952 58.744C159.952 55.5013 159.312 52.856 158.032 50.808C156.837 48.76 155.131 47.1387 152.912 45.944C150.779 44.7493 148.176 43.9387 145.104 43.512C142.032 43.0853 138.661 42.872 134.992 42.872H133.072ZM182.68 97.144C183.021 100.131 183.747 102.989 184.856 105.72C185.965 108.365 187.416 110.712 189.208 112.76C191.085 114.808 193.347 116.472 195.992 117.752C198.637 118.947 201.709 119.544 205.208 119.544C207.085 119.544 209.048 119.288 211.096 118.776C213.229 118.179 215.192 117.368 216.984 116.344C218.776 115.32 220.355 114.083 221.72 112.632C223.171 111.096 224.152 109.389 224.664 107.512H225.816V117.112C225.304 117.112 224.707 117.283 224.024 117.624C223.427 117.965 222.701 118.392 221.848 118.904C220.141 119.928 217.837 121.037 214.936 122.232C212.035 123.341 208.195 123.896 203.416 123.896C199.576 123.896 195.907 123.341 192.408 122.232C188.995 121.123 185.965 119.416 183.32 117.112C180.675 114.808 178.541 111.864 176.92 108.28C175.384 104.696 174.616 100.429 174.616 95.48C174.616 92.3227 175.128 89.1227 176.152 85.88C177.261 82.6373 178.883 79.736 181.016 77.176C183.235 74.5307 186.051 72.3973 189.464 70.776C192.877 69.1547 196.973 68.344 201.752 68.344C206.019 68.344 209.731 69.0693 212.888 70.52C216.131 71.9707 218.776 73.976 220.824 76.536C222.957 79.096 224.536 82.1253 225.56 85.624C226.584 89.1227 227.096 92.9627 227.096 97.144H182.68ZM201.24 72.568C198.253 72.568 195.651 73.1653 193.432 74.36C191.299 75.5547 189.464 77.0907 187.928 78.968C186.392 80.8453 185.197 82.9787 184.344 85.368C183.491 87.7573 182.936 90.1467 182.68 92.536H219.16C219.075 90.0613 218.605 87.6293 217.752 85.24C216.984 82.8507 215.875 80.7173 214.424 78.84C212.973 76.9627 211.139 75.4693 208.92 74.36C206.701 73.1653 204.141 72.568 201.24 72.568ZM233.157 123V121.72C233.84 121.72 234.437 121.464 234.949 120.952C235.461 120.44 235.888 119.843 236.229 119.16C236.656 118.477 236.954 117.752 237.125 116.984C237.296 116.131 237.381 115.363 237.381 114.68V49.144C237.381 47.6933 237.168 46.328 236.741 45.048C236.314 43.768 235.034 43.0853 232.901 43V41.72L245.829 37.752V114.68C245.829 115.363 245.914 116.131 246.085 116.984C246.256 117.752 246.512 118.477 246.853 119.16C247.28 119.843 247.706 120.44 248.133 120.952C248.645 121.464 249.242 121.72 249.925 121.72V123H233.157ZM290.942 123V116.472L290.302 117.112C288.169 119.245 285.694 120.909 282.878 122.104C280.147 123.299 276.819 123.896 272.894 123.896C269.907 123.896 267.347 123.555 265.214 122.872C263.081 122.189 261.331 121.251 259.966 120.056C258.601 118.776 257.577 117.325 256.894 115.704C256.297 114.083 255.998 112.376 255.998 110.584C255.998 107.683 256.766 105.123 258.302 102.904C259.923 100.685 262.227 98.7227 265.214 97.016C268.201 95.3093 271.827 93.7733 276.094 92.408C280.446 90.9573 285.395 89.5493 290.942 88.184C290.771 84.856 290.089 82.168 288.894 80.12C287.699 78.072 286.291 76.4933 284.67 75.384C283.049 74.1893 281.342 73.4213 279.55 73.08C277.758 72.6533 276.222 72.44 274.942 72.44C272.723 72.44 270.761 72.7813 269.054 73.464C267.433 74.1467 265.982 75.0427 264.702 76.152C263.507 77.176 262.483 78.328 261.63 79.608C260.777 80.8027 260.094 81.9547 259.582 83.064H258.43V73.72C259.113 73.6347 259.753 73.4213 260.35 73.08C260.947 72.7387 261.673 72.3973 262.526 72.056C263.806 71.544 265.555 70.8187 267.774 69.88C269.993 68.856 273.107 68.344 277.118 68.344C281.811 68.344 285.609 68.9413 288.51 70.136C291.411 71.3307 293.63 72.9093 295.166 74.872C296.787 76.8347 297.854 79.096 298.366 81.656C298.878 84.1307 299.134 86.6907 299.134 89.336V114.68C299.134 116.387 299.518 118.008 300.286 119.544C301.054 120.995 302.078 121.72 303.358 121.72V123H290.942ZM290.942 110.84V92.536L289.662 92.792C287.614 93.304 285.097 93.9867 282.11 94.84C279.209 95.6933 276.435 96.8027 273.79 98.168C271.145 99.5333 268.883 101.155 267.006 103.032C265.129 104.909 264.19 107.085 264.19 109.56C264.19 112.291 265.299 114.552 267.518 116.344C269.737 118.136 272.638 119.032 276.222 119.032C279.038 119.032 281.513 118.435 283.646 117.24C285.779 115.96 287.742 114.339 289.534 112.376L290.942 110.84ZM324.01 141.304C322.815 144.888 321.279 147.32 319.402 148.6C317.61 149.88 315.733 150.52 313.77 150.52C312.49 150.52 311.338 150.349 310.314 150.008C309.375 149.667 308.522 149.24 307.754 148.728C307.071 148.301 306.517 147.875 306.09 147.448C305.663 147.021 305.407 146.68 305.322 146.424L309.546 136.056C309.973 137.592 310.399 138.744 310.826 139.512C311.253 140.365 311.85 141.133 312.618 141.816C313.386 142.499 314.325 142.84 315.434 142.84C317.482 142.84 319.103 141.347 320.298 138.36L326.57 122.616L305.962 76.024C305.535 75 304.81 73.848 303.786 72.568C302.847 71.2027 301.525 70.52 299.818 70.52V69.24H316.714V70.52C316.373 70.52 315.946 70.8187 315.434 71.416C314.922 72.0133 314.666 72.7813 314.666 73.72C314.666 74.488 314.837 75.1707 315.178 75.768L330.922 111.992L346.026 75C346.282 74.4027 346.41 73.848 346.41 73.336C346.41 72.4827 346.111 71.8 345.514 71.288C345.002 70.776 344.447 70.52 343.85 70.52V69.24H356.266V70.52C354.901 70.52 353.706 71.1173 352.682 72.312C351.743 73.4213 350.975 74.7013 350.378 76.152L324.01 141.304Z" fill="black"/>
<path d="M87.1111 64.4C81.4114 52.8253 69.5571 44.9 55.8592 44.9C36.6074 44.9 21 60.6152 21 80M24.8889 95.6C30.5886 107.175 42.4429 115.1 56.1408 115.1C75.3926 115.1 91 99.3848 91 80M44.3333 95.6H21V119M91 41V64.4H67.6667" stroke="#37B4B0" stroke-width="6.67"/>
</g>
<defs>
<clipPath id="clip0_67_60">
<rect width="458" height="153" fill="white"/>
</clipPath>
<style>
    .relay-color-black {
        fill: black
    }

    @media (prefers-color-scheme: dark) {
      .relay-color-black {
        fill: white
      }
    }
</style>
</defs>
</svg>
