<?xml version="1.0" standalone="no"?>
<svg version="1.0" xmlns="http://www.w3.org/2000/svg" width="610.000000" height="382.000000" viewBox="0 0 610.000000 382.000000" preserveAspectRatio="xMidYMid meet">
<defs>
<style>
    .sde-color {
        fill: #1C5EAA;
    }

    @media (prefers-color-scheme: dark) {
      .sde-color {
        fill: white
      }
    }
</style>
</defs>
  <g transform="translate(0.000000,382.000000) scale(0.100000,-0.100000)" class="sde-color" stroke="none">
    <path d="M177 3688 c-3 -18 -4 -736 -3 -1595 l1 -1563 223 -222 c178 -178 224 -220 232 -208 6 9 10 601 10 1596 l0 1580 -220 220 c-121 120 -224 220 -229 222 -5 2 -11 -12 -14 -30z" />
    <path d="M4011 3316 c-8 -9 -11 -101 -9 -317 l3 -304 68 -3 67 -3 0 118 c0 65 5 135 10 155 18 64 76 92 115 56 6 -5 12 -80 15 -166 l5 -157 65 0 65 0 0 170 c0 190 -8 219 -68 255 -39 24 -130 26 -167 5 -14 -8 -29 -14 -33 -15 -4 0 -7 45 -6 99 1 54 -2 104 -5 110 -10 16 -111 14 -125 -3z" />
    <path d="M1115 3267 c-3 -7 -4 -138 -3 -292 l3 -280 70 0 70 0 0 113 0 112 31 0 c41 0 49 -10 93 -127 l37 -98 68 -3 c72 -3 97 7 79 30 -6 7 -30 61 -53 120 -24 59 -48 113 -56 118 -10 9 -2 21 33 56 l45 46 -4 70 c-3 64 -7 73 -35 99 -18 15 -49 33 -70 38 -56 16 -302 14 -308 -2z m249 -118 c53 -42 21 -99 -61 -106 l-48 -5 -3 56 c-2 31 0 61 3 66 11 18 81 11 109 -11z" />
    <path d="M1695 3117 c-21 -12 -53 -42 -70 -65 -28 -41 -30 -49 -30 -140 0 -113 15 -148 83 -196 36 -26 53 -30 126 -34 138 -7 186 22 170 104 -3 19 -8 34 -10 34 -3 0 -32 -9 -65 -20 -84 -29 -139 -16 -167 37 -11 20 -9 21 47 28 33 4 94 5 138 3 l78 -3 3 63 c4 94 -36 168 -107 198 -53 22 -149 18 -196 -9z m140 -83 c8 -4 22 -19 31 -35 l15 -29 -71 0 c-38 0 -73 0 -77 1 -14 1 -2 34 19 52 21 17 54 22 83 11z" />
    <path d="M2122 3123 c-53 -26 -72 -58 -72 -121 0 -49 3 -58 33 -85 17 -16 57 -39 87 -51 40 -15 56 -27 58 -42 5 -38 -81 -52 -139 -23 -24 12 -37 -3 -40 -51 -4 -39 -1 -46 21 -57 38 -19 178 -17 220 5 51 25 80 74 80 134 0 43 -5 55 -32 82 -18 18 -55 41 -83 51 -27 10 -57 25 -65 32 -13 13 -13 16 5 29 16 12 35 14 88 9 l67 -6 0 45 c0 35 -5 48 -19 56 -31 16 -171 12 -209 -7z" />
    <path d="M2524 3126 c-48 -21 -99 -88 -112 -148 -17 -74 0 -171 37 -218 42 -54 102 -80 186 -80 134 0 174 27 159 107 -7 39 -9 39 -96 8 -60 -22 -112 -11 -141 27 -12 15 -18 31 -14 35 4 3 68 9 142 11 l135 5 0 52 c0 138 -72 215 -202 215 -35 -1 -77 -7 -94 -14z m137 -99 c9 -7 19 -22 23 -35 7 -21 6 -22 -68 -22 -83 0 -90 7 -51 45 26 27 70 32 96 12z" />
    <path d="M2955 3128 c-48 -17 -53 -25 -47 -76 2 -26 6 -49 8 -51 2 -2 26 6 53 18 27 11 65 21 84 21 42 0 83 -30 74 -53 -5 -14 -20 -17 -74 -17 -122 -1 -193 -58 -193 -155 0 -81 63 -135 157 -135 29 0 63 8 86 20 31 17 37 18 37 5 0 -13 11 -15 62 -13 l63 3 -3 150 c-2 83 -8 166 -14 185 -13 44 -44 78 -87 96 -39 16 -162 17 -206 2z m170 -275 c-4 -16 -12 -34 -18 -41 -34 -42 -117 -32 -117 14 0 30 41 53 99 54 42 0 43 -1 36 -27z" />
    <path d="M3344 3127 c-2 -7 -3 -107 -2 -222 l3 -210 65 0 65 0 5 130 c6 162 17 185 85 185 25 0 45 3 46 8 6 41 8 81 3 100 -4 19 -11 22 -50 22 -35 0 -51 -6 -70 -25 -22 -22 -25 -23 -31 -7 -4 9 -11 20 -17 24 -19 13 -96 9 -102 -5z" />
    <path d="M3735 3123 c-81 -42 -115 -104 -115 -208 0 -88 30 -157 85 -200 34 -25 49 -29 119 -33 45 -2 93 1 109 7 23 9 27 16 27 49 0 55 -18 76 -53 63 -45 -17 -84 -13 -113 13 -24 20 -28 32 -32 89 -4 63 -3 68 27 98 29 29 35 31 94 27 l62 -3 3 43 c2 24 -2 50 -9 58 -17 20 -164 19 -204 -3z" />
    <path d="M1235 2481 c-86 -28 -125 -80 -125 -168 0 -86 24 -117 129 -169 105 -52 125 -71 112 -106 -5 -15 -20 -30 -33 -34 -34 -11 -102 -7 -142 7 -44 16 -52 9 -59 -54 -6 -64 9 -71 138 -72 116 0 142 6 184 40 42 36 61 79 61 140 0 84 -51 142 -158 181 -57 20 -92 55 -85 83 10 38 29 44 114 38 80 -6 80 -6 90 20 17 45 8 86 -21 94 -32 9 -179 9 -205 0z" />
    <path d="M3890 2481 c-13 -9 -14 -51 -11 -298 2 -158 5 -290 7 -292 5 -6 235 -2 273 5 58 11 140 55 165 88 54 71 61 95 61 206 0 94 -3 110 -25 149 -56 99 -144 138 -330 147 -79 3 -131 2 -140 -5z m243 -125 c76 -28 111 -80 110 -171 0 -106 -60 -171 -168 -182 l-55 -6 0 187 0 186 38 0 c20 -1 54 -7 75 -14z" />
    <path d="M5006 2435 c-44 -16 -56 -29 -56 -66 0 -28 -16 -39 -56 -39 -22 0 -24 -4 -24 -50 l0 -50 40 0 40 0 0 -120 c0 -186 28 -227 152 -228 39 0 71 5 76 11 5 7 7 32 3 56 -6 44 -6 45 -46 45 l-40 1 -3 118 -3 117 46 0 c29 0 45 4 46 13 1 17 -2 82 -5 84 -2 2 -51 10 -78 12 -5 1 -8 16 -8 34 0 78 -13 87 -84 62z" />
    <path d="M1705 2341 c-82 -20 -128 -66 -151 -154 -18 -67 -17 -111 1 -165 22 -63 40 -85 87 -113 37 -21 55 -24 138 -23 52 0 107 5 123 12 25 11 27 16 27 68 0 54 -1 56 -22 50 -86 -26 -127 -35 -147 -31 -32 6 -68 31 -81 55 -10 19 -6 20 132 22 l143 3 3 51 c4 65 -29 154 -68 188 -16 13 -52 29 -80 35 -56 12 -62 12 -105 2z m109 -133 c29 -42 22 -48 -59 -48 -63 0 -75 3 -75 17 0 52 103 76 134 31z" />
    <path d="M2165 2341 c-108 -28 -169 -112 -167 -231 2 -106 60 -197 142 -220 38 -11 132 -13 167 -4 27 7 31 18 25 72 l-4 43 -58 -7 c-36 -4 -65 -2 -78 5 -51 27 -69 129 -32 188 23 38 53 48 114 39 43 -7 43 -6 50 25 10 49 7 76 -7 82 -28 10 -123 16 -152 8z" />
    <path d="M3077 2335 c-21 -7 -45 -21 -52 -32 -13 -16 -14 -16 -15 -1 0 10 -8 21 -17 26 -20 11 -89 10 -99 -1 -8 -7 -8 -427 0 -434 3 -3 28 -7 56 -10 73 -7 82 4 80 91 -5 148 -1 183 23 212 18 21 31 26 65 26 l42 -1 0 59 c0 48 -4 61 -19 70 -23 12 -17 12 -64 -5z" />
    <path d="M3325 2341 c-110 -28 -160 -102 -160 -236 1 -127 49 -194 154 -216 59 -12 158 -7 204 10 25 10 27 15 27 66 0 46 -3 55 -18 55 -10 0 -23 -5 -29 -11 -6 -6 -42 -14 -80 -16 -59 -5 -72 -2 -95 17 -56 43 -41 50 111 50 117 0 140 2 145 16 9 24 -21 151 -45 190 -36 58 -138 94 -214 75z m111 -136 c8 -13 13 -29 9 -35 -3 -5 -37 -10 -76 -10 -58 0 -69 3 -69 17 0 32 31 53 76 53 35 0 47 -5 60 -25z" />
    <path d="M2430 2331 l-45 -6 4 -165 c4 -176 11 -208 56 -250 23 -22 36 -25 93 -25 44 1 78 7 100 18 28 15 32 15 32 2 0 -12 13 -15 65 -15 l65 0 0 213 c0 152 -3 216 -12 225 -16 16 -103 15 -116 -1 -6 -6 -12 -74 -14 -149 -3 -128 -4 -138 -27 -162 -15 -16 -35 -26 -52 -26 -48 0 -59 37 -59 198 0 118 -2 141 -16 146 -9 3 -19 5 -22 4 -4 0 -27 -4 -52 -7z" />
    <path d="M4520 2326 c-34 -12 -35 -15 -38 -69 -3 -51 -1 -57 17 -57 11 0 22 4 25 9 4 5 28 14 55 20 59 13 116 -1 124 -29 7 -27 1 -30 -72 -30 -77 0 -137 -24 -169 -65 -17 -21 -22 -41 -22 -87 0 -54 3 -63 33 -93 25 -25 45 -34 83 -40 53 -7 128 7 140 26 4 7 14 2 26 -11 13 -14 28 -19 46 -16 15 2 38 5 51 5 l24 1 -6 166 c-7 193 -20 229 -92 264 -48 23 -168 26 -225 6z m190 -252 c0 -3 -7 -21 -16 -40 -25 -52 -101 -65 -128 -21 -8 12 -5 22 14 42 19 21 33 25 77 25 29 0 53 -3 53 -6z" />
    <path d="M5295 2325 c-22 -8 -41 -15 -43 -15 -6 0 5 -100 11 -106 4 -4 23 2 44 12 53 25 140 25 159 -1 27 -36 17 -42 -68 -47 -104 -6 -144 -27 -176 -90 -30 -59 -23 -107 23 -152 50 -50 132 -61 200 -26 47 24 45 24 45 6 0 -18 16 -23 60 -20 19 1 41 3 48 3 19 1 7 311 -14 361 -25 59 -74 85 -168 88 -53 1 -95 -3 -121 -13z m185 -255 c0 -6 -7 -24 -15 -40 -16 -32 -45 -44 -91 -38 -39 4 -46 48 -12 72 25 18 118 22 118 6z" />
    <path d="M2531 1706 c-7 -8 -11 -37 -9 -68 l3 -53 65 0 65 0 3 53 c2 31 -2 60 -9 68 -15 19 -103 19 -118 0z" />
    <path d="M1127 1674 c-9 -9 -9 -546 -1 -568 5 -14 31 -16 180 -16 173 0 174 0 179 23 4 13 4 36 2 53 l-4 29 -106 9 -107 8 0 59 c0 54 2 59 23 60 47 1 153 10 165 14 7 3 12 22 12 50 0 28 -5 47 -12 50 -7 2 -52 7 -100 10 l-88 7 0 48 c0 58 3 60 121 60 85 0 89 1 95 24 3 13 4 37 2 52 l-3 29 -176 3 c-96 1 -178 -1 -182 -4z" />
    <path d="M5821 1635 c-51 -16 -62 -29 -54 -66 5 -26 3 -28 -33 -31 l-39 -3 -3 -52 -3 -53 40 0 39 0 4 -137 c3 -119 6 -142 23 -165 26 -35 63 -48 136 -48 67 0 76 9 71 70 -4 39 -5 40 -43 40 -53 0 -60 19 -57 138 l3 97 45 5 c44 5 45 6 48 45 4 46 -14 65 -65 65 l-33 0 0 55 c0 62 -3 64 -79 40z" />
    <path d="M1574 1527 c-2 -7 -3 -107 -2 -222 l3 -210 63 -3 62 -3 0 106 c0 119 12 183 41 214 25 27 75 28 89 2 5 -11 10 -80 10 -155 0 -74 3 -141 6 -150 5 -12 21 -16 70 -16 74 0 67 -20 64 175 -2 186 -20 240 -87 266 -42 16 -125 11 -159 -10 -30 -18 -31 -18 -42 0 -9 15 -24 19 -62 19 -32 0 -52 -5 -56 -13z" />
    <path d="M2037 1533 c-4 -3 -7 -13 -7 -21 0 -11 84 -246 146 -405 5 -15 17 -17 78 -15 l71 3 27 70 c145 376 145 375 58 375 -53 0 -62 -7 -80 -65 -6 -22 -26 -80 -43 -129 l-31 -89 -43 127 c-23 71 -47 134 -54 142 -12 14 -109 20 -122 7z" />
    <path d="M2542 1530 l-22 -10 2 -212 3 -213 65 0 65 0 3 209 c2 145 -1 213 -9 222 -13 16 -72 18 -107 4z" />
    <path d="M2761 1526 c-8 -9 -11 -77 -9 -222 l3 -209 55 -6 c30 -3 61 -4 68 -1 9 3 12 38 12 131 0 108 3 131 20 159 18 28 25 32 65 32 49 0 46 -5 49 85 l1 40 -46 3 c-37 2 -50 -2 -72 -22 -25 -23 -28 -24 -34 -8 -4 9 -11 20 -17 24 -19 13 -83 9 -95 -6z" />
    <path d="M3155 1521 c-168 -76 -168 -346 0 -422 45 -21 130 -24 188 -8 84 23 147 114 147 212 0 73 -16 122 -53 164 -44 50 -98 73 -177 73 -42 0 -79 -7 -105 -19z m162 -113 c45 -49 45 -148 1 -195 -30 -32 -87 -31 -118 2 -24 26 -38 102 -27 147 17 66 101 92 144 46z" />
    <path d="M3561 1526 c-8 -9 -11 -77 -9 -222 l3 -209 65 0 65 0 5 140 c6 163 18 195 75 195 54 0 59 -17 65 -184 l5 -151 63 -3 c45 -2 62 0 62 10 1 7 1 82 0 166 -1 176 -12 219 -65 252 -43 26 -127 27 -176 1 -35 -19 -36 -19 -47 0 -15 23 -93 27 -111 5z" />
    <path d="M4062 1532 c-9 -6 -12 -58 -10 -223 l3 -214 59 -3 c41 -2 62 1 67 10 5 7 9 72 9 143 0 150 9 178 56 183 53 5 59 -13 56 -173 -4 -169 -2 -172 80 -167 l56 4 4 148 c3 129 5 151 22 169 11 12 31 21 47 21 40 0 49 -38 49 -201 l0 -139 65 0 c76 0 68 -23 66 195 -2 159 -10 194 -52 230 -25 20 -41 25 -85 25 -58 0 -85 -9 -121 -42 -17 -16 -23 -17 -30 -6 -17 29 -58 48 -104 48 -54 0 -109 -17 -109 -33 0 -7 -7 -4 -15 7 -15 20 -91 33 -113 18z" />
    <path d="M4862 1524 c-121 -62 -151 -281 -53 -382 48 -49 106 -66 205 -60 103 7 126 23 126 89 0 58 1 58 -90 24 -27 -10 -59 -14 -79 -11 -35 5 -81 41 -81 62 0 18 79 28 174 20 44 -3 87 -2 95 3 20 13 9 114 -18 171 -32 68 -78 94 -170 98 -56 2 -85 -2 -109 -14z m153 -109 c39 -38 32 -45 -50 -45 -78 0 -88 7 -62 41 27 35 79 38 112 4z" />
    <path d="M5242 1532 c-9 -6 -12 -58 -10 -223 l3 -214 65 0 65 0 5 140 c4 112 9 145 23 166 26 39 87 46 103 11 5 -9 11 -84 14 -167 l5 -150 62 -3 c60 -3 63 -2 69 24 4 14 4 90 0 168 -8 158 -24 209 -75 239 -39 23 -125 22 -171 -2 -30 -17 -36 -17 -45 -4 -13 17 -94 28 -113 15z" />
    <path d="M3145 813 c-11 -2 -30 -6 -42 -8 -12 -3 -36 -17 -54 -32 -109 -92 -106 -323 6 -409 32 -24 49 -29 111 -32 65 -4 79 -1 118 22 135 79 136 354 3 430 -42 24 -105 37 -142 29z m114 -96 c34 -31 51 -78 51 -139 0 -74 -15 -119 -51 -154 -26 -25 -38 -29 -84 -29 -62 0 -88 18 -116 80 -42 91 -11 221 61 258 44 22 105 15 139 -16z" />
    <path d="M1114 797 c-2 -7 -3 -114 -2 -237 l3 -225 30 0 30 0 5 172 5 171 85 -150 c47 -83 93 -161 103 -174 19 -25 70 -33 82 -13 4 5 9 106 11 223 4 236 0 255 -49 242 l-27 -6 0 -178 0 -177 -96 170 c-52 93 -100 175 -106 182 -14 17 -67 17 -74 0z" />
    <path d="M1603 804 c-10 -4 -13 -60 -13 -229 0 -212 1 -225 19 -235 11 -5 65 -10 120 -10 86 0 102 3 110 18 6 11 6 24 0 35 -8 14 -25 17 -94 17 l-85 0 0 70 0 70 63 0 c86 0 107 7 107 35 0 19 -7 24 -38 30 -21 3 -43 5 -48 4 -5 -1 -26 -1 -46 0 l-38 1 0 65 0 64 83 3 82 3 0 30 0 30 -105 2 c-58 1 -111 0 -117 -3z" />
    <path d="M1921 796 c-9 -11 -9 -20 -2 -35 9 -16 23 -21 69 -23 l57 -3 0 -190 c1 -105 4 -196 9 -203 9 -15 38 -16 54 0 9 9 12 68 12 205 l0 192 63 3 c57 3 62 5 65 27 2 13 -2 28 -10 32 -7 5 -79 9 -159 9 -115 0 -149 -3 -158 -14z" />
    <path d="M2288 804 c-7 -6 2 -46 32 -144 31 -102 64 -215 81 -274 15 -52 26 -61 63 -52 26 6 27 10 76 176 12 41 29 98 38 125 l15 50 22 -70 c13 -38 34 -112 49 -164 14 -52 31 -100 37 -107 14 -17 53 -18 67 -1 16 21 132 435 126 451 -7 19 -50 21 -61 4 -4 -7 -20 -60 -35 -118 -70 -261 -65 -248 -73 -215 -4 17 -20 77 -35 135 -16 58 -35 128 -42 155 -13 48 -15 50 -51 53 -43 4 -47 -1 -77 -123 -42 -173 -63 -237 -72 -221 -4 8 -20 59 -33 113 -35 136 -57 206 -68 221 -10 12 -49 17 -59 6z" />
    <path d="M3504 797 c-2 -7 -3 -114 -2 -237 l3 -225 30 0 c29 0 30 1 38 65 4 36 6 82 3 103 -4 36 -3 37 30 37 40 0 50 -13 94 -120 31 -76 42 -90 73 -90 39 0 32 34 -39 186 l-24 52 30 30 c25 25 30 39 30 77 0 59 -25 102 -69 121 -43 18 -190 19 -197 1z m174 -73 c25 -17 29 -59 8 -87 -8 -11 -33 -20 -62 -23 l-49 -6 2 58 c0 33 2 62 2 67 2 13 76 7 99 -9z" />
    <path d="M3923 799 c-8 -8 -10 -74 -7 -228 3 -119 7 -222 10 -229 2 -7 14 -12 26 -10 29 4 42 54 34 137 l-6 64 104 -101 c86 -85 108 -102 134 -102 17 0 34 5 37 11 4 5 -43 61 -104 123 -61 61 -111 116 -111 120 0 5 46 52 102 105 105 100 115 121 57 121 -25 0 -48 -17 -121 -87 -49 -49 -90 -89 -91 -90 -1 -1 -1 32 1 73 4 78 -5 104 -37 104 -9 0 -22 -5 -28 -11z" />
  </g>
</svg>