<svg width="792" height="223" viewBox="0 0 792 223" fill="none" xmlns="http://www.w3.org/2000/svg">
<path d="M126.091 29.2362H93.017V222.654H33.8227V29.2362H0.749084V0.231201H126.091V29.2362Z" fill="#F1BD44"/>
<path d="M283.566 222.965H224.372C217.983 216.657 214.788 198.768 214.788 169.298V168.987L215.164 155.648C215.54 137.139 215.728 127.677 215.728 127.264C215.728 119.715 209.589 115.941 197.312 115.941V222.654H138.117V0.231201H211.218C227.88 0.231201 242.349 3.38507 254.627 9.69275C267.029 16.0004 273.231 25.979 273.231 39.6284V66.3067C273.231 83.5753 261.016 95.26 236.587 101.361C261.141 106.118 273.419 118.371 273.419 138.121L272.479 162.473C272.479 198.044 276.175 218.208 283.566 222.965ZM215.728 77.1642V40.559C215.728 32.8037 209.589 28.926 197.312 28.926V88.9523C209.589 88.9523 215.728 85.023 215.728 77.1642Z" fill="#F1BD44"/>
<path d="M407.404 222.654H291.646V0.231201H406.653V28.926H350.841V88.9523H401.203V115.941H350.841V194.115H407.404V222.654Z" fill="#F1BD44"/>
<path d="M494.035 143.55H417.552V118.578H494.035V143.55Z" fill="#F1BD44"/>
<path d="M614.678 28.926H563.001V88.9523H609.229V115.941H563.001V222.654H503.806V0.231201H614.678V28.926Z" fill="#F1BD44"/>
<path d="M791.697 222.654H728.181L701.121 151.15L675.752 222.654H619.188L665.792 96.2424L631.215 0.231201H688.154L709.201 64.7557L732.691 0.231201H785.872L745.469 103.222L791.697 222.654Z" fill="#F1BD44"/>
</svg>
