<?xml version="1.0" encoding="UTF-8" standalone="no"?>
<svg xmlns:dc="http://purl.org/dc/elements/1.1/" xmlns:cc="http://creativecommons.org/ns#" xmlns:rdf="http://www.w3.org/1999/02/22-rdf-syntax-ns#" xmlns:svg="http://www.w3.org/2000/svg" xmlns="http://www.w3.org/2000/svg" viewBox="0 0 673.98669 248.97333" height="248.97333" width="673.98669" xml:space="preserve" id="svg2" version="1.1">
  <g transform="matrix(1.3333333,0,0,-1.3333333,0,248.97333)" id="g10">
    <g transform="scale(0.1)" id="g12">
      <path id="path14" class="uon-color-black" d="m 2904,30.8789 -5.51,16.7422 c -24.27,-7.5117 -39.86,-10.6719 -51.71,-10.6719 -32.97,0 -51.17,29.1797 -51.17,82.3518 0,49.437 19.36,76.64 54.61,76.64 12.46,0 26.6,-1.75 45.08,-5.781 l 4.08,17.309 c -17.92,5.48 -36.42,8.633 -50.31,8.633 -50.59,0 -78.28,-35.223 -78.28,-99.973 0,-62.7188 27.13,-99.6798 72.21,-99.6798 15.63,0 37.86,5.211 61,14.4297 v 0" />
      <path id="path16" class="uon-color-black" d="M 3079.84,20.1992 V 212.949 h -23.06 v -82.668 h -92.53 v 82.668 h -23.11 V 20.1992 h 23.11 v 92.7698 h 92.53 V 20.1992 h 23.06 v 0" />
      <path id="path18" class="uon-color-black" d="M 3149.61,20.1797 V 212.969 h -23.07 V 20.1797 h 23.07 v 0" />
      <path id="path20" class="uon-color-black" d="M 3335.28,20.1992 V 212.949 h -19.32 V 41.5586 l -86.71,171.3904 h -32.92 V 20.1992 h 19.33 V 189.289 l 86.75,-169.0898 h 32.87 v 0" />
      <path id="path22" class="uon-color-black" d="m 3407.93,89.5391 34.68,103.4809 35.84,-103.4809 z m 49.44,123.4099 h -26.28 L 3362.56,20.1992 h 20.83 l 18.5,51.7305 h 83.23 l 18.77,-51.7305 h 23.71 l -70.23,192.7498" />
      <path id="path24" class="uon-color-black" d="M 4018.54,20.1797 4012.2,212.98 h -32.93 L 3923.75,38.6289 3867.66,212.98 h -32.94 l -6.37,-192.8003 h 21.37 l 3.78,170.5503 54.9,-170.5503 h 27.78 l 55.5,170.5503 3.19,-170.5503 h 23.67 v 0" />
      <path id="path26" class="uon-color-black" d="m 4091.09,89.5391 34.67,103.5119 35.87,-103.5119 z m 49.43,123.4409 h -26.31 l -68.5,-192.8003 h 20.82 l 18.49,51.75 h 83.28 l 18.78,-51.75 h 23.71 L 4140.52,212.98" />
      <path id="path28" class="uon-color-black" d="m 4349.13,20.1797 v 17.3086 h -86.11 V 212.98 h -23.08 V 20.1797 h 109.19 v 0" />
      <path id="path30" class="uon-color-black" d="m 4411.31,89.5391 34.66,103.5119 35.88,-103.5119 z m 49.41,123.4409 h -26.31 L 4365.93,20.1797 h 20.81 l 18.49,51.75 h 83.25 l 18.81,-51.75 H 4531 L 4460.72,212.98" />
      <path id="path32" class="uon-color-black" d="m 4672.53,212.98 h -23.14 l -51.14,-89.031 -52.6,89.031 h -26.56 l 65.6,-108.378 V 20.1797 h 23.12 v 84.4223 l 64.72,108.378 v 0" />
      <path id="path34" class="uon-color-black" d="m 4800.67,75.0898 c 0,29.1992 -10.96,41.9222 -53.16,54.9222 -36.16,10.988 -41.08,16.207 -41.08,33.539 0,20.558 14.73,32.109 35.86,32.109 11.85,0 26.65,-2.039 45.68,-6.07 l 4.04,17.031 c -17.9,5.211 -35.23,8.098 -50.57,8.098 -35.32,0 -58.08,-20.231 -58.08,-53.18 0,-44.527 44.47,-47.129 75.7,-61.32 15.05,-6.6174 18.54,-13.8596 18.54,-28.0393 0,-20.7891 -18.22,-34.6914 -42.83,-34.6914 -13.85,0 -29.2,2.6133 -48.52,7.5234 l -4.94,-17.6211 c 21.39,-6.3515 36.67,-8.9297 54.93,-8.9297 39.02,0 64.43,21.6407 64.43,56.6289 v 0" />
      <path id="path36" class="uon-color-black" d="M 4859.75,20.1719 V 213 h -23.14 V 20.1719 h 23.14 v 0" />
      <path id="path38" class="uon-color-black" d="m 4934.19,89.5391 34.71,103.5119 35.83,-103.5119 z m 49.45,123.4409 h -26.31 L 4888.81,20.1797 h 20.81 l 18.53,51.75 h 83.25 l 18.78,-51.75 h 23.7 L 4983.64,212.98" />
      <path id="path40" class="uon-color-black" d="m 2319.57,98.5 v 114.219 h -19.3 V 90.1211 c 0,-17.6016 -1.44,-27.4219 -5.48,-34.6211 -6.92,-12.6992 -21.36,-19.3398 -42.13,-19.3398 -32.32,0 -48.19,14.4101 -48.19,46.4492 V 212.719 h -23.05 V 99.6406 c 0,-36.6601 1.44,-45.8906 10.08,-58.2812 10.38,-14.9805 32.3,-24.1875 57.7,-24.1875 23.94,0 42.42,6.0273 54.53,17.5469 13.25,12.9726 15.84,23.0625 15.84,63.7812 v 0" />
      <path id="path42" class="uon-color-black" d="m 2497.45,20.3398 -88.56,102.9692 86.25,89.41 h -27.41 l -83.65,-87.68 v 87.68 h -23.04 V 20.3398 h 23.04 V 119.57 l 84.53,-99.2302 h 28.84 v 0" />
      <path id="path44" class="uon-color-black" d="m 2629.4,0.21875 h -9.1 V 232.332 h 9.1 V 0.21875" />
      <path id="path46" class="uon-color-black" d="m 3668.7,0.21875 h -9.1 V 232.332 h 9.1 V 0.21875" />
      <path id="path48" class="uon-color-black" d="m 4980.96,495.871 v 231.688 c 0,29.062 -15.83,53.332 -54.6,53.332 -21.81,0 -37.6,-6.09 -50.95,-19.403 3.66,-10.898 4.87,-21.847 4.87,-44.859 V 495.871 h -74 v 231.688 c 0,26.64 -7.27,54.562 -54.6,54.562 -24.2,0 -32.76,-3.66 -46.05,-9.75 v -276.5 h -74 V 801.48 c 27.93,12.149 67.88,26.692 123.7,26.692 46.11,0 76.43,-10.871 94.62,-26.692 21.85,15.821 50.91,26.692 93.42,26.692 77.58,0 111.55,-44.863 111.55,-100.613 V 495.871 h -73.96 v 0" />
      <path id="path50" class="uon-color-black" d="M 4201.49,495.871 V 722.68 c 0,31.519 -13.35,54.539 -54.57,54.539 -23.09,0 -38.84,-6.028 -54.55,-15.731 V 495.871 h -74 V 932.48 h 74 v -121.3 c 19.36,8.511 47.25,14.57 72.76,14.57 81.27,0 110.32,-48.531 110.32,-98.191 V 495.871 h -73.96 v 0" />
      <path id="path52" class="uon-color-black" d="m 3300.12,869.219 c -28.15,0 -42.84,18.406 -42.84,39.195 0,20.746 14.69,39.113 42.84,39.113 26.87,0 42.76,-18.367 42.76,-39.113 0,-20.789 -15.89,-39.195 -42.76,-39.195 v 0" />
      <path id="path54" class="uon-color-black" d="m 3574.47,495.871 v 231.688 c 0,26.64 -10.91,54.562 -58.25,54.562 -24.23,0 -36.39,-3.66 -49.74,-9.75 v -276.5 h -73.95 V 801.48 c 27.88,12.149 71.52,26.692 127.34,26.692 97.02,0 128.57,-47.281 128.57,-99.461 v -232.84 h -73.97 v 0" />
      <path id="path56" class="uon-color-black" d="m 3263.06,495.871 v 326.238 h 74.04 V 495.871 h -74.04 v 0" />
      <path id="path58" class="uon-color-black" d="m 3166.29,492.262 c -64.29,0 -89.74,36.359 -89.74,88.527 v 194.012 h -36.4 v 47.308 h 36.4 v 65.536 l 73.98,20.566 v -86.102 h 52.17 v -47.308 h -52.17 V 580.789 c 0,-29.098 15.76,-37.641 36.41,-37.641 6.05,0 14.53,0 21.83,1.223 v -48.5 c -7.3,-1.18 -26.71,-3.609 -42.48,-3.609 v 0" />
      <path id="path60" class="uon-color-black" d="m 2968.8,492.262 c -64.29,0 -89.76,36.359 -89.76,88.527 v 194.012 h -36.38 v 47.308 h 36.38 v 65.536 l 74.01,20.566 v -86.102 h 52.13 v -47.308 h -52.13 V 580.789 c 0,-29.098 15.75,-37.641 36.4,-37.641 6.07,0 14.54,0 21.82,1.223 v -48.5 c -7.28,-1.18 -26.69,-3.609 -42.47,-3.609 v 0" />
      <path id="path62" class="uon-color-black" d="m 2431.24,495.871 -155.26,261.961 c -9.69,15.777 -16.95,31.527 -25.44,50.93 h -1.21 c 2.4,-20.571 3.63,-37.571 3.63,-53.332 V 495.871 h -71.54 v 416.004 h 76.4 l 144.33,-244.996 c 8.48,-14.539 15.74,-27.891 23.05,-47.258 h 1.21 c -2.46,20.598 -2.46,35.117 -2.46,49.688 v 242.566 h 71.56 V 495.871 h -64.27 v 0" />
      <path id="path64" class="uon-color-black" d="m 4501.98,537.129 c -8.52,-3.629 -26.72,-8.508 -43.64,-8.508 -38.85,0 -65.53,25.481 -65.53,70.391 0,42.386 23.1,71.508 67.97,71.508 20.61,0 33.93,-3.641 41.2,-4.84 V 537.129 Z m -50.92,291.043 c -50.94,0 -89.79,-14.543 -111.55,-24.242 l 16.89,-44.891 c 19.44,9.75 49.72,20.633 81.29,20.633 38.84,0 64.29,-10.883 64.29,-53.34 v -18.211 c -6.09,1.211 -27.89,4.867 -47.29,4.867 -75.2,0 -135.83,-38.84 -135.83,-116.406 0,-63.082 42.41,-110.383 134.61,-110.383 50.94,0 92.18,9.672 120.08,23 v 204.973 c 0,84.918 -54.59,114 -122.49,114 v 0" />
      <path id="path66" class="uon-color-black" d="m 3887.5,552.859 c -10.88,-6.027 -25.43,-10.839 -42.39,-10.839 -52.13,0 -75.23,38.769 -75.23,113.91 0,77.672 24.29,126.191 78.81,126.191 15.78,0 27.93,-1.23 38.81,-7.32 V 552.859 Z m -37.9,275.313 c -105.28,0 -157.29,-66.684 -157.29,-172.242 0,-101.828 52.01,-162.481 130.68,-162.481 29.05,0 50.83,4.871 64.09,12.141 v -20.629 c 0,-43.621 -22.98,-71.531 -77.43,-71.531 -36.24,0 -59.3,9.699 -78.65,18.152 l -20.59,-46.07 c 24.26,-13.352 63,-24.211 112.58,-24.211 81.09,0 136.76,44.801 136.76,130.961 V 805.18 c -21.8,12.121 -60.53,22.992 -110.15,22.992 v 0" />
      <path id="path68" class="uon-color-black" d="m 2686.36,534.68 c -50.97,0 -59.42,65.492 -59.42,123.73 0,59.442 8.45,124.899 59.42,124.899 50.92,0 59.43,-65.457 59.43,-124.899 0,-58.238 -8.51,-123.73 -59.43,-123.73 z m -4.8,293.492 c -92.17,0 -138.24,-70.34 -138.24,-169.762 0,-98.262 46.07,-168.578 138.24,-168.578 92.2,0 138.25,70.316 138.25,168.578 0,99.422 -46.05,169.762 -138.25,169.762 v 0" />
      <path id="path70" class="uon-color-black" d="m 4412.93,1329.63 c -27.36,0 -33.15,-12.98 -33.15,-33.09 v -10.14 h 38.98 v -40.35 h -38.98 v -183.02 h -59.1 v 183.02 h -24.49 v 40.35 h 24.49 v 15.87 c 0,44.7 28.85,69.19 77.86,69.19 10.08,0 17.28,0 25.91,-1.46 v -40.37 h -11.52 v 0" />
      <path id="path72" class="uon-color-black" d="m 3860.15,973.652 c -33.22,0 -59.1,7.235 -76.4,15.903 l 12.99,34.595 c 12.93,-5.79 30.19,-11.58 54.73,-11.58 37.49,0 49.01,17.31 49.01,46.12 v 14.46 c -7.13,-4.38 -21.6,-10.12 -46.1,-10.12 -54.77,0 -79.32,27.36 -79.32,72.04 v 151.33 h 59.15 v -148.41 c 0,-20.2 7.18,-36.03 36,-36.03 14.41,0 23.14,4.31 30.27,7.18 v 177.26 h 59.16 v -214.72 c 0,-70.63 -41.89,-98.028 -99.49,-98.028 v 0" />
      <path id="path74" class="uon-color-black" d="m 3701.69,1060.16 c -43.17,0 -64.82,23.07 -64.82,60.51 v 125.38 h -24.56 v 40.35 h 24.56 v 46.14 l 59.09,15.83 v -61.97 h 36.02 v -40.35 h -36.02 v -119.61 c 0,-20.17 10.08,-25.93 24.46,-25.93 7.22,0 12.98,0 20.21,1.45 v -37.45 c -5.79,-1.48 -17.37,-4.35 -38.94,-4.35 v 0" />
      <path id="path76" class="uon-color-black" d="m 3513.04,1063.03 v 223.37 h 58.99 v -223.37 h -58.99 v 0" />
      <path id="path78" class="uon-color-black" d="m 3390.87,1058.69 c -28.84,0 -51.87,7.23 -69.16,15.86 l 14.4,37.47 c 11.59,-5.75 27.41,-12.98 46.17,-12.98 21.56,0 34.54,7.23 34.54,24.48 0,15.91 -10.03,23.11 -36.04,33.14 -43.26,17.32 -51.91,43.27 -51.91,67.78 0,35.99 27.41,66.3 76.42,66.3 27.35,0 47.51,-7.22 63.44,-15.84 l -15.93,-34.61 c -7.12,4.34 -22.96,11.52 -40.33,11.52 -20.17,0 -30.19,-8.66 -30.19,-23.03 0,-15.89 15.78,-21.63 35.99,-30.25 44.63,-17.32 54.7,-43.27 54.7,-70.67 0,-40.34 -33.14,-69.17 -82.1,-69.17 v 0" />
      <path id="path80" class="uon-color-black" d="m 3302.94,1246.05 c -4.3,1.48 -17.33,2.91 -27.32,2.91 -10.12,0 -18.86,-1.43 -24.59,-2.91 v -183.02 h -59.06 v 210.41 c 8.68,4.33 43.26,15.84 82.19,15.84 22.94,0 28.78,-1.46 37.44,-2.88 l -8.66,-40.35 v 0" />
      <path id="path82" class="uon-color-black" d="m 2682.85,1313.8 c -21.61,0 -31.75,12.98 -31.75,28.84 0,15.81 10.14,28.82 31.75,28.82 20.21,0 31.69,-13.01 31.69,-28.82 0,-15.86 -11.48,-28.84 -31.69,-28.84 v 0" />
      <path id="path84" class="uon-color-black" d="m 2873.78,1063.03 h -56.22 l -76.4,223.37 h 63.47 l 28.77,-105.19 c 2.94,-10.06 10.12,-36.02 12.93,-49.02 h 1.49 c 1.4,13 8.68,38.96 11.52,49.02 l 30.26,105.19 h 59.13 l -74.95,-223.37 v 0" />
      <path id="path86" class="uon-color-black" d="m 2652.06,1063.03 v 223.37 h 59.09 v -223.37 h -59.09 v 0" />
      <path id="path88" class="uon-color-black" d="m 3543.82,1313.8 c -21.6,0 -31.74,12.98 -31.74,28.84 0,15.81 10.14,28.82 31.74,28.82 20.17,0 31.66,-13.01 31.66,-28.82 0,-15.86 -11.49,-28.84 -31.66,-28.84 v 0" />
      <path id="path90" class="uon-color-black" d="m 2550.63,1063.03 v 157.09 c 0,15.86 -7.13,31.69 -36.04,31.69 -14.37,0 -23.01,-2.85 -30.19,-5.76 v -183.02 h -59.09 v 210.41 c 24.5,10.08 54.74,17.3 92.18,17.3 67.77,0 92.33,-33.15 92.33,-70.62 v -157.09 h -59.19 v 0" />
      <path id="path92" class="uon-color-black" d="m 2282.31,1058.69 c -57.71,0 -100.89,30.26 -100.89,89.34 v 198.94 h 61.98 v -198.94 c 0,-27.36 14.36,-41.76 38.91,-41.76 24.49,0 38.93,14.4 38.93,41.76 v 198.94 h 61.93 v -198.94 c 0,-59.08 -43.19,-89.34 -100.86,-89.34 v 0" />
      <path id="path94" class="uon-color-black" d="m 4175.71,1097.63 c -30.19,0 -37.38,34.56 -37.38,77.8 0,41.8 7.19,76.38 37.38,76.38 30.34,0 37.54,-34.58 37.54,-76.38 0,-43.24 -7.2,-77.8 -37.54,-77.8 z m 0,193.11 c -66.22,0 -97.98,-49.02 -97.98,-115.31 0,-67.75 31.76,-116.74 97.98,-116.74 66.33,0 98.08,48.99 98.08,116.74 0,66.29 -31.75,115.31 -98.08,115.31 v 0" />
      <path id="path96" class="uon-color-black" d="m 3098.15,1194.14 h -83.55 c 0,43.3 17.28,59.12 41.84,59.12 23.05,0 41.71,-14.4 41.71,-56.24 v -2.88 z m 56.26,-14.36 c 0,70.57 -35.99,110.96 -96.59,110.96 -61.92,0 -99.46,-43.21 -99.46,-115.31 0,-74.92 41.82,-116.74 108.1,-116.74 34.58,0 60.54,7.23 79.26,17.3 l -14.41,38.96 c -15.79,-7.27 -33.16,-12.99 -59.05,-12.99 -27.41,0 -51.92,11.5 -56.26,54.7 h 138.41 v 23.12 0" />
      <path id="path98" class="uon-color-black" d="M 0,0 H 1867.33 V 1867.33 H 0 Z" />
      <path id="path100" class="uon-color-white" d="m 1261,1417.92 c -42.27,22.99 -82.14,41.09 -136.49,54.38 v -111.09 c 48.35,-10.87 94.22,-27.8 136.49,-47.11 v 103.82" />
      <path id="path102" class="uon-color-white" d="m 1076.22,1054.42 c -13.3,0 -24.16,-10.87 -24.16,-25.35 L 1044.79,802 h 64.03 l -8.49,227.07 c 0,14.48 -9.6,25.35 -24.11,25.35" />
      <path id="path104" class="uon-color-white" d="m 1132.98,428.879 c -67.65,0 -115.93,15.691 -177.535,47 -66.441,33.859 -140.09,62.871 -234.312,62.871 -88.153,0 -182.36,-31.461 -253.61,-137.699 85.735,53.14 165.457,70.051 231.864,70.051 71.261,0 125.64,-18.141 181.16,-47.082 62.832,-32.61 117.152,-55.551 195.673,-55.551 76.08,0 161.83,28.941 235.5,125.543 -59.17,-49.442 -121.96,-65.133 -178.74,-65.133" />
      <path id="path106" class="uon-color-white" d="m 747.703,1029.07 c 0,14.48 10.883,25.35 24.168,25.35 13.301,0 24.145,-10.87 24.145,-25.35 L 804.492,802 H 740.43 Z m 9.66,-452.91 c 60.371,0 130.442,-16.879 208.953,-60.398 v 224.609 l -32.609,41.149 v 311.57 l 63.992,99.04 -26.562,-95.39 c 18.121,2.35 36.233,3.56 55.563,3.56 62.81,0 120.75,-10.83 170.29,-30.19 l 64.01,59.19 v 160.61 c -42.27,19.35 -88.14,35.06 -136.49,47.11 -28.99,7.28 -60.38,12.08 -91.77,15.7 v 138.92 c -33.822,4.82 -68.849,7.22 -105.064,7.22 -33.836,0 -67.656,-2.4 -100.258,-6.04 v -131.61 c -31.402,-3.66 -61.598,-9.69 -90.578,-16.91 v 130.4 c -51.945,-14.5 -101.449,-35.01 -146.137,-60.38 V 1143.77 L 652.281,1084.61 634.18,780.309 584.656,730.77 V 554.461 l 16.93,-18.121 c 41.047,21.691 92.969,39.82 155.777,39.82" />
    </g>
  </g>
  <defs>
    <style>
      .uon-color-black {
        fill: #10263B
      }

      .uon-color-white {
        fill: white
      }


      @media (prefers-color-scheme: dark) {
        .uon-color-black {
          fill: white
        }
        .uon-color-white {
          fill: black
        }
      }
    </style>
  </defs>
</svg>